<svg xmlns="http://www.w3.org/2000/svg" viewBox="0 0 1382.69 602.01"><defs><style>.cls-1{isolation:isolate;}.cls-2{fill:#dd9564;}.cls-3{fill:#c1875f;}.cls-4{fill:#ff8f43;}.cls-5{fill:#ffac33;}.cls-10,.cls-6{mix-blend-mode:multiply;}.cls-6{opacity:0.5;}.cls-7{fill:#5e2a3a;}.cls-8{fill:#753949;}.cls-9{fill:#ea7b59;}.cls-10{fill:#843131;opacity:0.6;}.cls-11{fill:#9b7c82;}.cls-12{fill:#ad9097;}.cls-13{fill:#896a6f;}.cls-14{fill:#75545b;}.cls-15{fill:#a58b90;}.cls-16{fill:#af9198;}.cls-17{fill:#6d5055;}.cls-18{fill:#ce5236;}.cls-19{fill:#ff865c;}.cls-20{fill:#d1b8be;}.cls-21{fill:#ff9566;}.cls-22{fill:#b54d2d;}.cls-23{fill:#ccbec7;}.cls-24{fill:#bcaab5;}.cls-25{fill:#914530;}.cls-26{fill:#ffb882;}.cls-27{fill:#ffb640;}.cls-28{fill:#e03f3f;}.cls-29{fill:#4c202e;}.cls-30{fill:#f2ced4;}.cls-31{fill:#ffe6e9;}.cls-32{fill:#cc663e;}.cls-33{fill:#fff;}.cls-34{fill:none;stroke:#000;stroke-miterlimit:10;}</style></defs><g class="cls-1"><g id="Capa_1" data-name="Capa 1"><path class="cls-2" d="M861,470.19c2.74,1.34,6,3.3,6.68,4.48s3.53,6.79,2.7,7.86-2.88,2.62-4.59,1.81-3.13-5.44-3.91-6.15a38.85,38.85,0,0,0-5.26-2.6Z" transform="translate(13.87 -87.04)"/><path class="cls-2" d="M867,463.17c2.74,1.52,6,3.71,6.67,5s3.5,7.3,2.67,8.4-2.88,2.65-4.58,1.73-3.12-5.86-3.9-6.64-5.24-2.94-5.24-2.94Z" transform="translate(13.87 -87.04)"/><path class="cls-2" d="M839.27,454.64c9.28-1.84,23.47-3.3,26.38-2.26s13.66,8,14.57,9.52,3.52,10.22,2.35,12.36-4.38,2.08-5.74.9-1.82-7.74-2.77-8.39-4.24-3-5-2.79-5.95,12.55-9.38,12.81-14.12-6.12-19.8-4.84Z" transform="translate(13.87 -87.04)"/><path class="cls-2" d="M767.63,481.69c16.21,4.93,48.89-11.17,82.1-9,13.4.89,15.67-6.57,4.59-13-7.06-4.1-25.29-8.52-30.84-8.73-12.7-.49-51.19-4.34-55.45-2.25C758.16,453.58,750.6,476.5,767.63,481.69Z" transform="translate(13.87 -87.04)"/><path class="cls-3" d="M846.83,462.36c-39.72-7.14-86.64-22.87-87-4.23-4,8.63-3.62,20.08,7.8,23.56,16.21,4.93,48.89-11.17,82.1-9,9.17.61,13.13-2.69,11.16-6.9C859,467.17,851.84,463.26,846.83,462.36Z" transform="translate(13.87 -87.04)"/><path class="cls-4" d="M672,589h59.06l55.15-8.64,7.84-55-1.31-12.25,2.09-3-2.09-8.39h3.66l-9.93-16.78h3.14s-1.83-9.87-8.37-15.3l5.75,2.22s-7.05-22.05-24.57-23.28-40.77-1.49-54.1,6.41-22.47,21.47-22.47,21.47l3.92-.49S679.3,490.28,677,495.71l3.66-.74s-10.45,18.26-13.07,25.42l4.45-1.48a60.29,60.29,0,0,0-6,34.55l4.7-1.73a60.15,60.15,0,0,0-6,24.19l4.44-3Z" transform="translate(13.87 -87.04)"/><path class="cls-5" d="M792.73,501.71h3.66l-9.93-16.78h3.14s-1.83-9.87-8.37-15.3l5.75,2.22s-7.05-22.05-24.57-23.28-40.77-1.49-54.1,6.41-22.47,21.47-22.47,21.47l3.92-.49S679.3,490.28,677,495.71l.46-.1c16.77-29.49,83.76,18.83,48.44,93.39h5.2l55.15-8.64,7.84-55-1.31-12.25,2.09-3Z" transform="translate(13.87 -87.04)"/><g class="cls-6"><path class="cls-7" d="M696.1,563.72a3.82,3.82,0,0,0-1.94-.6,25.77,25.77,0,0,0-19.91,6.6c-1.36,1.26-2.64,2.84-2.63,4.68a7,7,0,0,0,1,3.14,14.41,14.41,0,0,0,3.51,4.6,7.82,7.82,0,0,0,2.12,1.21l.7-1.52,1.34,1.95a5.23,5.23,0,0,0,1.31-.1,10.28,10.28,0,0,0,3.5-1.71,51.83,51.83,0,0,0,5.83-3.83c.78-.68-.11-2,2-2.48a15,15,0,0,0,3.21-.74,4.76,4.76,0,0,0,2.39-4.44,13.79,13.79,0,0,0-1.41-5.09A3.86,3.86,0,0,0,696.1,563.72Z" transform="translate(13.87 -87.04)"/><path class="cls-7" d="M667.8,540.4c.26.39.92.09,1,1.07a6.54,6.54,0,0,0,.12,1.47,2.21,2.21,0,0,0,1.88,1.36,6.71,6.71,0,0,0,2.43-.27,1.81,1.81,0,0,0,.84-.36,1.62,1.62,0,0,0,.4-.82,11.23,11.23,0,0,0-1.66-9.27,3.18,3.18,0,0,0-2-1.49,3.42,3.42,0,0,0-1.51.23,6.71,6.71,0,0,0-2.35,1.24c-.07.06-.12.14-.18.2-.22,1-.43,2.13-.6,3.25.07.18.16.36.24.54A24.81,24.81,0,0,0,667.8,540.4Z" transform="translate(13.87 -87.04)"/><path class="cls-7" d="M707.53,534.69a6.82,6.82,0,0,0-.73,4.37c.16,1.87.87,4.09,2.74,4.46a3.32,3.32,0,0,0,2.82-1,5.43,5.43,0,0,0,.62-.73,5.28,5.28,0,0,0,2.56-3.81,4.74,4.74,0,0,0-2.73-4.8A4.42,4.42,0,0,0,707.53,534.69Z" transform="translate(13.87 -87.04)"/><path class="cls-7" d="M672.83,516.06l-.1-.36a1.58,1.58,0,0,0,1.47.23,2.21,2.21,0,0,0,1-1.59,33.1,33.1,0,0,0,1.15-10.71,1.43,1.43,0,0,0-.19-.74c-1.73,3.17-3.69,6.85-5.36,10.2a5.54,5.54,0,0,0,1.25,2.08A4.79,4.79,0,0,0,672.83,516.06Z" transform="translate(13.87 -87.04)"/><path class="cls-7" d="M704.32,522.41l2.46-3.13a7,7,0,0,0,.93-1.37,6.44,6.44,0,0,0,.41-3.08A29.33,29.33,0,0,0,702.5,499a3.82,3.82,0,0,0-5.28-1.65,21.61,21.61,0,0,0-11.79,10.14,21,21,0,0,0-1.64,15.3,11.62,11.62,0,0,0,1.91,4.09c2.3,2.94,6.58,4,10.21,3a13.69,13.69,0,0,0,8.25-7.12C704.22,522.64,704.27,522.52,704.32,522.41Z" transform="translate(13.87 -87.04)"/><path class="cls-7" d="M752.5,523.75a11.53,11.53,0,0,0,3.21-.11,24.32,24.32,0,0,0,7.67-1.83c2.37-1.14,4.42-3.26,4.75-5.83l.27-1a9.76,9.76,0,0,0-.62-4.25,9.23,9.23,0,0,0-5.41-4.9,15.49,15.49,0,0,0-7.47-.6,22.93,22.93,0,0,0-7.54,2.44,7.47,7.47,0,0,0-3.47,3.16c-1.23,2.67.47,5.71,2.25,8.07C747.77,521.11,749.79,523.33,752.5,523.75Z" transform="translate(13.87 -87.04)"/><path class="cls-7" d="M755.41,544.87c-4.27,3.2-4.93,9.28-4.27,14.53.21,1.7.73,3.67,2.35,4.32a4.82,4.82,0,0,0,2.79,0,23.19,23.19,0,0,0,9.08-4.11l-4.13,3c2.21.69,4.65-.33,6.35-1.88A10.63,10.63,0,0,0,769.09,547C766.06,542.91,759.5,541.81,755.41,544.87Z" transform="translate(13.87 -87.04)"/><path class="cls-7" d="M713.22,549.09a6.33,6.33,0,0,0-7,.38,6.79,6.79,0,0,0-2.3,4.56,11.33,11.33,0,0,0,.06,2.79l5,7.79,5.65-5.93h0l2.38-2.49a9.76,9.76,0,0,0,0-1.08A7.9,7.9,0,0,0,713.22,549.09Z" transform="translate(13.87 -87.04)"/><path class="cls-7" d="M710.67,586.3c-1.12-.52-6.59-4.65-16.37,2.7h19A5,5,0,0,0,710.67,586.3Z" transform="translate(13.87 -87.04)"/><path class="cls-7" d="M665.79,566.76l3.29-2.72a9.47,9.47,0,0,0,.31-2.5,5,5,0,0,0-.55-2.42,3.68,3.68,0,0,0-.83-1,63.17,63.17,0,0,0-2.29,8.67l.07-.06Z" transform="translate(13.87 -87.04)"/><path class="cls-7" d="M776.54,515.83a11,11,0,0,0,5.51.28c.25-6.15.21-12.46-.58-16.59l-.5.23c-4.5,2.25-8.43,6.52-8.36,11.48a5,5,0,0,0,.56,2.42A4.81,4.81,0,0,0,776.54,515.83Z" transform="translate(13.87 -87.04)"/><path class="cls-7" d="M782.55,498l1.39,1.54,1.66,1.83c-.1-1.46-.17-2.92-.24-4.38A17.78,17.78,0,0,0,782.55,498Z" transform="translate(13.87 -87.04)"/><path class="cls-7" d="M736.67,488.37l-1.49.6a14.2,14.2,0,0,0,1.16-4.29c.44-2.88.71-6-.67-8.56-2.06-3.83-7.16-5.16-11.52-4.5a18.63,18.63,0,0,0-14.16,11,6.5,6.5,0,0,0-.37,5.08,6.41,6.41,0,0,0,1.84,2.21,18.28,18.28,0,0,0,25.21-1.55Z" transform="translate(13.87 -87.04)"/><path class="cls-7" d="M739.37,547.45a16.7,16.7,0,0,0-8.56-1.5c-1.51.13-3.17.6-3.89,1.91a5.21,5.21,0,0,0-.23,3.32,8.26,8.26,0,0,0,1.61,4.39,7.06,7.06,0,0,0,3.94,1.89c1.8.36,7.7,1.24,9.06-.13a4.39,4.39,0,0,0,1-2c.55-2,.91-4.19-.23-5.87A6.36,6.36,0,0,0,739.37,547.45Z" transform="translate(13.87 -87.04)"/><path class="cls-7" d="M747.16,528.09c-1.39-1.48-3.14-3-5.19-2.9a6.42,6.42,0,0,0-3.16,1.15A16.26,16.26,0,0,0,733,532.7c-.68,1.33-1.15,3-.4,4.25a5.33,5.33,0,0,0,2.75,1.95,8.54,8.54,0,0,0,4.64,1,7,7,0,0,0,3.72-2.28c1.26-1.32,5.13-5.77,4.67-7.64A4.42,4.42,0,0,0,747.16,528.09Z" transform="translate(13.87 -87.04)"/><path class="cls-7" d="M775.39,528.36a6.26,6.26,0,0,0-4.13,2.56,4.64,4.64,0,0,0,.17,4.64,7.58,7.58,0,0,0,3.8,3c.89.35,6.63-5.21,7-10.09A14.3,14.3,0,0,0,775.39,528.36Z" transform="translate(13.87 -87.04)"/></g><ellipse class="cls-8" cx="715.06" cy="420.41" rx="15.84" ry="29.76"/><ellipse class="cls-9" cx="715.5" cy="418.46" rx="14.38" ry="28.53"/><path class="cls-10" d="M783.76,515.59l2.64-15.85s-32.78,9-43.94,14.24a88,88,0,0,0-5.79-8.75c-14.27-19.06-33.43-29.41-42.76-23.7-9,5.51-5.76,24.2,7.24,42.26,13.29,18.45,32.33,30.17,42.61,25.67l.29-.14C759.13,543.16,783.76,515.59,783.76,515.59Z" transform="translate(13.87 -87.04)"/><path class="cls-11" d="M841.69,589H801.27l-10.8-4.11S772.69,555.1,772,552s3.48-36,4.88-41.1,19.16-36.3,22.3-39,31-12,36.24-12.33,31.71,6.85,35.54,8.9,9.41,85.27,9.41,85.27Z" transform="translate(13.87 -87.04)"/><path class="cls-12" d="M871,468.46c-3.83-2-30.31-9.24-35.54-8.9-3.33.22-15.88,4.06-25.35,7.52a3.81,3.81,0,0,0,.34.22c3.66,2,39.44,8.32,44.83,7.93,2.27-.16,9.4-1.47,17.11-3.05C871.87,470,871.41,468.7,871,468.46Z" transform="translate(13.87 -87.04)"/><path class="cls-13" d="M846.17,514.07c-3.14.68-36.59-3.43-41.82-4.8-2.68-.7-12.33-5.64-21.47-10.69-3.1,5.72-5.52,10.57-6,12.34-1.4,5.14-5.58,38-4.88,41.1s18.47,32.87,18.47,32.87l10.8,4.11h40.42l38.68-35.27s-2.07-31-4.56-55.63C867.56,502.81,848.61,513.53,846.17,514.07Z" transform="translate(13.87 -87.04)"/><path class="cls-14" d="M871.17,470.05c-1.34-.72-5.9,5.41-5.9,5.41s-8.87,33.41-10.6,36.07-28.33,23-33,25.67S782,549.55,777.8,549.31a26.09,26.09,0,0,1-5.73-1.84A24.13,24.13,0,0,0,772,552c.69,3.08,18.47,32.87,18.47,32.87l10.8,4.11h40.42l38.68-35.27S875,472.1,871.17,470.05Z" transform="translate(13.87 -87.04)"/><path class="cls-15" d="M841.69,589c-8.71-6.51-24.39-42.12-26.13-47.26s8.71-42.8,10.45-46.91,15.68-24,18.47-25.34,20.32-2.42,23.92-2.07,17.55,10.63,19.29,12.34,17.08,29.11,17.42,33.56,1,34.93-.69,39.38-16,30.14-19.17,30.82-15.78,4.61-19.51,5.48Z" transform="translate(13.87 -87.04)"/><path class="cls-16" d="M905.19,547.31l-30.59-6.74-2-16.14,26-25.68c-4.53-8.67-9.95-18-10.95-19-1.74-1.71-15.68-12-19.29-12.34s-21.13.7-23.92,2.07l-.22.13L855,497.14l-6.26,25.75L858.17,546l7.57,43c3.73-.87,16.38-4.79,19.51-5.48s17.43-26.37,19.17-30.82A22.73,22.73,0,0,0,905.19,547.31Z" transform="translate(13.87 -87.04)"/><path class="cls-13" d="M862.8,548.43c-2.07-1.73-5.79-11.18-6.21-12.54s2.07-11.36,2.48-12.45,3.73-6.36,4.39-6.73a23.31,23.31,0,0,1,5.68-.55c.85.1,4.16,2.82,4.58,3.28s4,7.72,4.13,8.9.25,9.27-.16,10.45-3.81,8-4.55,8.18-3.75,1.23-4.63,1.46Z" transform="translate(13.87 -87.04)"/><path class="cls-17" d="M874.43,520.68a10.56,10.56,0,0,0-.71-1.24c-.42-.46-3.73-3.18-4.58-3.28a23.31,23.31,0,0,0-5.68.55c-.66.37-4,5.64-4.39,6.73-.18.48-.78,2.75-1.35,5.24Z" transform="translate(13.87 -87.04)"/><path class="cls-10" d="M722.1,588.81H702.74s-2.06-33.85,9.68-40.11S722.1,588.81,722.1,588.81Z" transform="translate(13.87 -87.04)"/><path class="cls-3" d="M710.93,589h99.66l1.12-1.69S759,542.09,712.76,552C706,553.46,702.91,577.7,710.93,589Z" transform="translate(13.87 -87.04)"/><path class="cls-3" d="M736.18,551.19c31.55,9,71.52,37.81,71.52,37.81l1.08-1.69S773.61,555.93,736.18,551.19Z" transform="translate(13.87 -87.04)"/><path class="cls-10" d="M705.58,467.37c.65,10.17,10.74,24.67,10.74,24.67l.31-7.6c4.62,8.37,13.26,16.58,13.26,16.58l-1.12-6.72c3.32,6.19,11.22,11.18,11.22,11.18l-1.3-4.37c4.59,5.16,12.86,8.34,12.86,8.34l-1.93-3.62c2.52,1.22,5.16,2.43,8,3.62l1.17-5.73,5.83,5.45-.59-8.6,3.5,4,3.21-10.89,4.08,4-.87-11.17,4.66,5.73-1.16-15.76,3.2,4.58-.87-11.74,1.5.29h0l2.86.57L774.78,455l2.84,1.19c-3.78-3.93-8.79-7.18-15.21-7.63-17.51-1.24-40.77-1.49-54.1,6.41a70.75,70.75,0,0,0-14.95,12.31l-1.27,6.18Z" transform="translate(13.87 -87.04)"/><path class="cls-8" d="M790.26,440.91s-4.37-12-10.21-17.47a10.43,10.43,0,0,1,6.42,2s-5.83-10.31-16.33-15.19l3.79-.28s-10.42-11.74-35.57-10c-16.91,1.15-28.29,17.48-28.29,17.48l2.34,1.14s-14,19.49-16.62,28.66l4.08-2.29-4,19.32,13.49-6.1c.65,10.17,10.74,24.67,10.74,24.67l.32-7.6c4.61,8.37,13.25,16.58,13.25,16.58l-1.11-6.72c3.31,6.18,11.21,11.18,11.21,11.18l-1.3-4.38c4.59,5.16,12.87,8.35,12.87,8.35l-1.93-3.63q3.76,1.84,7.95,3.63l1.17-5.73,5.83,5.44-.58-8.59,3.5,4,3.2-10.89,4.09,4-.88-11.18,4.67,5.74-1.17-15.76,3.21,4.58-.88-11.75,4.38.86-9.33-15.18,4.08,1.71L778,440.05l5.54-.85-4.95-4.88S786.47,436,790.26,440.91Z" transform="translate(13.87 -87.04)"/><path class="cls-7" d="M781.07,481.41l1.32,1.63-.71-9.51A63.63,63.63,0,0,1,781.07,481.41Z" transform="translate(13.87 -87.04)"/><path class="cls-7" d="M790.26,440.91s-4.37-12-10.21-17.47a10.43,10.43,0,0,1,6.42,2s-5.83-10.31-16.33-15.19l3.79-.28s-10.42-11.74-35.57-10c-16.91,1.15-28.29,17.48-28.29,17.48l2.34,1.14s-6,8.36-10.88,16.7c8.44-10.86,22.15-23.82,35.59-23.82,24.2,0,42.43,28.2,44.41,56.28l2.9,4.14-.88-11.75,4.38.86-9.33-15.18,4.08,1.71L778,440.05l5.54-.85-4.95-4.88S786.47,436,790.26,440.91Z" transform="translate(13.87 -87.04)"/><path class="cls-7" d="M780.1,418a29.38,29.38,0,0,1,4.49,6.4,11.84,11.84,0,0,1,1.88,1.08,42,42,0,0,0-5.8-7.47C780.31,418,780.1,418,780.1,418Z" transform="translate(13.87 -87.04)"/><path class="cls-7" d="M696.1,447l.63-2.47a25.3,25.3,0,0,0-.94,2.65Z" transform="translate(13.87 -87.04)"/><polygon class="cls-7" points="795.14 359.87 796.55 360.46 792.21 353.53 791.45 353.17 795.14 359.87"/><path class="cls-7" d="M774.52,439.06,767.33,448l3.23,9.65-6.62-2.92,6.47,16-4-2.31,4,10.67-5.42-2,2.93,9.51-4.69-2,1.59,9.24-5.57-5.7-1.44,5.67q-4.09-2-7.77-4l1.75,3.71s-8.11-3.56-12.45-8.92l1.09,4.43s-7.65-5.35-10.67-11.69l.8,6.77s-8.25-8.6-12.46-17.17l-.67,7.57s-9.4-14.94-9.56-25.13l-9.71,3.86-2.26,11,13.49-6.1c.65,10.17,10.74,24.67,10.74,24.67l.32-7.6c4.61,8.37,13.25,16.58,13.25,16.58l-1.11-6.72c3.31,6.18,11.21,11.18,11.21,11.18l-1.3-4.38c4.59,5.16,12.87,8.35,12.87,8.35l-1.93-3.63q3.76,1.84,7.95,3.63l1.17-5.73,5.83,5.44-.58-8.59,3.5,4,3.2-10.89,4.09,4-.88-11.18,4.67,5.74-1.17-15.76,3.21,4.58-.88-11.75,4.38.86Z" transform="translate(13.87 -87.04)"/><path class="cls-7" d="M786.78,433.11a26.77,26.77,0,0,0-8.65-4.34l4.72,5.09-5.58.6,3,5.25,3.32-.51-4.95-4.88s7.87,1.72,11.66,6.59A73.9,73.9,0,0,0,786.78,433.11Z" transform="translate(13.87 -87.04)"/><path class="cls-2" d="M690.54,501.25c7.06,13.74,33,31.8,43.45,34.71s11.59-20.58,7.24-27.43-24.83-33.62-29-35.53C701.78,468.2,681.66,484,690.54,501.25Z" transform="translate(13.87 -87.04)"/><path class="cls-3" d="M733.87,530c-10.45-2.91-36-22.81-43-36.55a19.8,19.8,0,0,1-1.9-5.52,18.31,18.31,0,0,0,1.6,13.3c7.06,13.74,32.58,33.64,43,36.56,7.48,2.08,10.4-10.31,9.86-20C742.46,525.16,739.42,531.57,733.87,530Z" transform="translate(13.87 -87.04)"/><path class="cls-2" d="M736.53,536.35C750.67,535,775.74,496,775.74,496L768,488.67s-32.28,12.18-36.33,17.81C727.74,511.94,729.85,537,736.53,536.35Z" transform="translate(13.87 -87.04)"/><path class="cls-3" d="M731.5,529.53a3.14,3.14,0,0,1-.87-.08c1,5.08,2.87,8.89,5.43,8.65,14.13-1.34,39.68-42.15,39.68-42.15S743.87,528.62,731.5,529.53Z" transform="translate(13.87 -87.04)"/><path class="cls-7" d="M715.69,435.58l4.34.89c-5.45,4.92-3.59,19.07-3.59,19.07C713,448.43,711.22,441.65,715.69,435.58Z" transform="translate(13.87 -87.04)"/><path class="cls-7" d="M717,432.93l2.81,3.37c-7.38.47-15,12.63-15,12.63C706.64,441.26,709.62,434.9,717,432.93Z" transform="translate(13.87 -87.04)"/><path class="cls-8" d="M721.78,432.58l1.51,4.55c-7.76-2.42-20.48,7-20.48,7C707.82,437,713.45,431.7,721.78,432.58Z" transform="translate(13.87 -87.04)"/><path class="cls-7" d="M718.8,438.57l4.43.1c-4.44,5.82,0,19.4,0,19.4C718.52,451.7,715.54,445.35,718.8,438.57Z" transform="translate(13.87 -87.04)"/><path class="cls-3" d="M774.59,444.66c2.24,2.83-.89,8.06-5.87,7.29-5.48-.85-10.73-7.52-10.73-7.52Z" transform="translate(13.87 -87.04)"/><path class="cls-2" d="M773.67,444.33c1.81,2.28-.71,6.5-4.74,5.87-4.41-.68-8.65-6.06-8.65-6.06Z" transform="translate(13.87 -87.04)"/><path class="cls-3" d="M735.42,440.88c-4.27,11.45,6.9,11.69,9.8,11.53,8.85-.51,17.51-7.45,17.51-7.45Z" transform="translate(13.87 -87.04)"/><path class="cls-2" d="M740.49,442.91c-3.07,8.24,5,8.41,7.06,8.3,6.36-.37,12.6-5.36,12.6-5.36Z" transform="translate(13.87 -87.04)"/><path d="M754.31,443.72a3.24,3.24,0,0,1-3.74,2.7c-2.26-.34-1.21-3.12-1.21-3.12Z" transform="translate(13.87 -87.04)"/><path d="M769,444.08a3.23,3.23,0,0,1-3.75,2.7c-2.25-.33-1.21-3.12-1.21-3.12Z" transform="translate(13.87 -87.04)"/><path class="cls-7" d="M760.07,447.75c10.89-.29,19.61,8.94,19.61,8.94s-10.77-.88-17.32-3S760.07,447.75,760.07,447.75Z" transform="translate(13.87 -87.04)"/><path class="cls-8" d="M760.43,448.81c10.88.08,19.31,9.61,19.31,9.61s-10.73-1.25-17.21-3.58S760.43,448.81,760.43,448.81Z" transform="translate(13.87 -87.04)"/><path class="cls-3" d="M760.57,445.44c3.25.44,5,1.64,4.36,3.55a4.46,4.46,0,0,1-4.84,2.92c-2.52-.22-5.47-3-5.47-3Z" transform="translate(13.87 -87.04)"/><path class="cls-2" d="M759.94,445.69c2.76.52,4.26,1.57,3.84,3.06s-2,2.36-3.93,2.08-5.27-2.42-5.27-2.42Z" transform="translate(13.87 -87.04)"/><path class="cls-3" d="M715.8,448.71a5.07,5.07,0,0,1-4.68-6.85c1.06-3.27,5.4-4.21,8.27-2.87S715.8,448.71,715.8,448.71Z" transform="translate(13.87 -87.04)"/><path class="cls-18" d="M716,446.73a3.14,3.14,0,0,1-2.9-4.24c.65-2,3.34-2.61,5.12-1.78S716,446.73,716,446.73Z" transform="translate(13.87 -87.04)"/><path class="cls-19" d="M717,445.9a1.9,1.9,0,0,1-1.75-2.57,2.27,2.27,0,0,1,3.09-1.07C719.4,442.76,717,445.9,717,445.9Z" transform="translate(13.87 -87.04)"/><path class="cls-7" d="M754.65,447.9c-10.57-2.11-21.14,5.47-21.14,5.47s10.72.94,17.59,0S754.65,447.9,754.65,447.9Z" transform="translate(13.87 -87.04)"/><path class="cls-8" d="M754.88,448.82c-10.64-1.74-21,6.19-21,6.19s10.76.57,17.6-.63S754.88,448.82,754.88,448.82Z" transform="translate(13.87 -87.04)"/><path class="cls-7" d="M737.51,437.07a19.82,19.82,0,0,1-7.34,3.2c17,6.37,37.55,6,47.27,3.24C777.44,443.51,754.86,444.31,737.51,437.07Z" transform="translate(13.87 -87.04)"/><polygon class="cls-15" points="892.67 374.07 895.31 364.85 904.4 365.13 903.82 370.61 892.67 374.07"/><polygon class="cls-15" points="881.05 365.08 878.82 356.12 884.37 353.96 886.28 359.02 881.05 365.08"/><path class="cls-8" d="M743,412.25l2,5.91c11.88-1,28,7.5,28,7.5C767.33,420.61,758.09,414.27,743,412.25Z" transform="translate(13.87 -87.04)"/><path class="cls-7" d="M775.21,434,771,429.39c-10.52,5.52-28.76,3.94-28.76,3.94C749.48,435.75,760.52,438,775.21,434Z" transform="translate(13.87 -87.04)"/><path class="cls-7" d="M776.85,439.81l-2.79-3c-6.88,3.61-18.83,2.58-18.83,2.58A36,36,0,0,0,776.85,439.81Z" transform="translate(13.87 -87.04)"/><path class="cls-8" d="M741.26,411.58l1.89,5.33c11-4.37,25.83-.43,25.83-.43C763.71,413.05,755.19,409.32,741.26,411.58Z" transform="translate(13.87 -87.04)"/><path class="cls-8" d="M727,414l5.59,7.13c10.26-11,30.38-11.29,30.38-11.29C754.59,406.94,742.14,404.92,727,414Z" transform="translate(13.87 -87.04)"/><path class="cls-7" d="M744.66,402.84l7.23,2.5c-15.4,3-28.55,18.06-28.55,18.06C727.45,414.14,732.31,407.25,744.66,402.84Z" transform="translate(13.87 -87.04)"/><path class="cls-8" d="M720.33,432.07l4.75.52c-5.05,7.6-.91,26.63-.91,26.63C719.4,450.06,716.5,441.08,720.33,432.07Z" transform="translate(13.87 -87.04)"/><path class="cls-2" d="M803.71,589H812l6.45-14.85S806,576,803.71,589Z" transform="translate(13.87 -87.04)"/><path class="cls-2" d="M712.33,589H806.9l1.6-3.65s-48-38.48-89.62-29.56C712.83,557.08,705.12,578.85,712.33,589Z" transform="translate(13.87 -87.04)"/><path class="cls-14" d="M816.73,543.47c-1.74-5.13,8.71-42.8,10.45-46.91s15.69-24,18.47-25.34,20.32-2.42,23.93-2.07,17.54,10.63,19.28,12.34l.18.2a15.38,15.38,0,0,0-1.35-1.93c-1.74-1.71-15.68-12-19.29-12.34s-21.13.7-23.92,2.07S827.75,490.72,826,494.83s-12.2,41.78-10.45,46.91c1.42,4.21,12.17,28.79,20.81,41.17C828,570.1,818.09,547.49,816.73,543.47Z" transform="translate(13.87 -87.04)"/><path class="cls-11" d="M864.35,537.93c-2.38,0-4.69.12-6.87.33,1.32,3.32,3.78,8.88,5.32,10.17h5.71c.88-.23,3.88-1.28,4.63-1.46s3.6-5.94,4.39-7.78A66,66,0,0,0,864.35,537.93Z" transform="translate(13.87 -87.04)"/><path class="cls-17" d="M877.85,528.34c-.08-1.18-3.72-8.45-4.13-8.9-.17-.18-.8-.73-1.55-1.33a8.88,8.88,0,0,1,.67.61c.41.45,4,7.72,4.13,8.9s.25,9.27-.16,10.45-3.81,8-4.55,8.18-3.75,1.23-4.63,1.46h-5.48a5.37,5.37,0,0,0,.65.72h5.71c.88-.23,3.88-1.28,4.63-1.46s4.13-7,4.55-8.18S877.94,529.53,877.85,528.34Z" transform="translate(13.87 -87.04)"/><polygon class="cls-13" points="832.14 399.72 826.08 401.26 815.33 397.99 826.67 396.84 837.82 395.88 832.14 399.72"/><polygon class="cls-13" points="838.65 405.88 829.35 410.32 816.26 405.59 826.78 404.15 842.15 401.31 838.65 405.88"/><polygon class="cls-14" points="855.72 387.01 846.65 385.12 833.69 382.62 843.56 386.19 853.4 389.66 855.72 387.01"/><polygon class="cls-14" points="835.46 427.05 830.34 426.68 816.7 421.7 827.53 423.72 837.81 421.49 835.46 427.05"/><polygon class="cls-20" points="857.15 399.71 866.75 398.04 870.43 406.21 865.16 408.07 857.15 399.71"/><polygon class="cls-20" points="832.5 395.26 833.45 388.85 839.34 388.35 839.41 392.08 832.5 395.26"/><polygon class="cls-20" points="897.44 399.45 903.91 396.94 912.43 400.5 908.12 403.63 897.44 399.45"/><polygon class="cls-20" points="854.37 422.12 863.34 426.64 862.64 434.33 857.26 432.49 854.37 422.12"/><path class="cls-2" d="M861.41,457.47c2.19,2.69,4.65,6.29,4.73,7.85s.24,8.94-1.17,9.73-4.35,1.55-5.73-.1-.51-7.3-1-8.41-4.19-5.17-4.19-5.17Z" transform="translate(13.87 -87.04)"/><path class="cls-21" d="M780,484.63c1.84,1.33,1.06,11.46-2.27,12.18S763.89,488,764,487.49,776.49,482.09,780,484.63Z" transform="translate(13.87 -87.04)"/><path class="cls-21" d="M781.59,483.84c1.4-1.34,11.87,1.43,12.83,4.63s-8.28,3.61-8.85,3.41S778.93,486.38,781.59,483.84Z" transform="translate(13.87 -87.04)"/><path class="cls-22" d="M793.67,454s-25.36,49.6-25.75,52.68,4.07,5.71,5.9,3.4,22.29-55.49,22.29-55.49Z" transform="translate(13.87 -87.04)"/><path class="cls-23" d="M808.56,477.25c-12,1.53-30.66-1.26-32-2.09s6.33-19.62,8.76-20.74C799.15,455.85,808.56,477.25,808.56,477.25Z" transform="translate(13.87 -87.04)"/><path class="cls-24" d="M801.72,466.68c-4.37-.62-8,.32-8.82,2.62s1.29,5.39,5.12,7.74a66.59,66.59,0,0,0,9.65-.37A57.68,57.68,0,0,0,801.72,466.68Z" transform="translate(13.87 -87.04)"/><path class="cls-24" d="M796.21,459.77c-1.24.6-2,1.4-2,2.28,0,1.81,3.2,3.28,7.22,3.37A41.36,41.36,0,0,0,796.21,459.77Z" transform="translate(13.87 -87.04)"/><path class="cls-24" d="M795.76,477.6c-3.47-3.6-7.43-5.23-9.7-3.7a4,4,0,0,0-1.56,2.74C787.76,477.05,791.71,477.42,795.76,477.6Z" transform="translate(13.87 -87.04)"/><path class="cls-24" d="M784.91,456.17c-2.33,2.19-8.13,16.61-7.08,17.28a2.62,2.62,0,0,0,.63.22,24.82,24.82,0,0,0,5.71-11.4A28.2,28.2,0,0,0,784.91,456.17Z" transform="translate(13.87 -87.04)"/><path class="cls-25" d="M790.18,455.46c-1.23,4.27-4.31,23.32-3.61,23.71s2.35.2,2.84-1.82,2.54-20.47,2.64-21.24S790.43,454.59,790.18,455.46Z" transform="translate(13.87 -87.04)"/><path class="cls-25" d="M794.61,457.89c-3.22,3.2-15.44,18.58-15,19.24s2,1.26,3.43-.3,12.45-16.88,12.92-17.51S795.27,457.23,794.61,457.89Z" transform="translate(13.87 -87.04)"/><path class="cls-25" d="M786,481c1.1.43,1.1,2.23-.88,2.23a23.23,23.23,0,0,1-5.58-1.19c-.95-.25-1.46-2.7.67-2.41A53.22,53.22,0,0,1,786,481Z" transform="translate(13.87 -87.04)"/><path class="cls-25" d="M784.38,484.31c1.1.44,1.1,2.24-.88,2.24a23.72,23.72,0,0,1-5.58-1.19c-.95-.25-1.46-2.7.66-2.41A51.41,51.41,0,0,1,784.38,484.31Z" transform="translate(13.87 -87.04)"/><path class="cls-2" d="M762.91,487.61c9.09-4.44,15.83,1.45,25-2.12,2.29-.9,6.89,1.72,7,4.36s-3.18,5.46-3.18,5.46,3.16,2.1,2.64,4.9-4.25,3.32-4.25,3.32c3.22,2,3.91,5.35-4,7.64-11.43,3.32-17.6-5.19-25.65-.71-6,3.35-13.68-12.34-8.2-15.4C757.22,492.29,762,488.07,762.91,487.61Z" transform="translate(13.87 -87.04)"/><path class="cls-26" d="M648.9,571.17h16.27s-9-6.18-12-5.78S648.9,571.17,648.9,571.17Z" transform="translate(13.87 -87.04)"/><path class="cls-26" d="M608.47,571.17H591.81s8.88-6.18,12-5.78S608.47,571.17,608.47,571.17Z" transform="translate(13.87 -87.04)"/><path class="cls-26" d="M677.2,475.42c-7.39,43.52-24.82,94.22-24.82,94.22H650.6l-12.85-89.43Z" transform="translate(13.87 -87.04)"/><path class="cls-21" d="M661.55,540.46c5.38-18.32,11.85-42.63,15.65-65l-39.45,4.79L647,544.72A71.52,71.52,0,0,1,661.55,540.46Z" transform="translate(13.87 -87.04)"/><path class="cls-26" d="M567.36,477c12.71,42.78,37.56,92.62,37.56,92.62h2l5.75-87.91Z" transform="translate(13.87 -87.04)"/><path class="cls-21" d="M603.12,546a51.52,51.52,0,0,1,5.26,1.77l4.32-66.06L567.36,477c7,23.41,17.54,48.92,25.71,67.24A51.47,51.47,0,0,1,603.12,546Z" transform="translate(13.87 -87.04)"/><path class="cls-27" d="M578.57,337.46c-18.91,16.79-30.2,53.89-30.2,53.89l3.07-.85-3.56,13.79,3.29-1.7s-5.64,49.64,3.6,97.35l2.5-5,5.37,24.11,3.9-10.15,6.77,12.77,6.38-7.8L583,526.72l9.9-6.54L599.34,533l5-8.81,7.77,6.88,3.77-11.68,7.68,6.36,8-5.83,7.11,8.25,8-12.23,4.23,10.93,7.89-14.81,3.43,12.1L672.41,506l3.51,12,7.55-21,6.07,8.11s3.32-22.1.75-39l6.07,7.15c-.2-96.83-17.8-141.32-70-146.74C614.39,325.17,588.88,328.31,578.57,337.46Z" transform="translate(13.87 -87.04)"/><path class="cls-5" d="M696.36,473.16c-.2-96.83-17.8-141.32-70-146.74-12-1.25-37.48,1.89-47.79,11-18.91,16.79-30.2,53.89-30.2,53.89l3.07-.85-3.56,13.79,3.29-1.7s-5.64,49.64,3.6,97.35l2.5-5,5.37,24.11,3.9-10.15,6.77,12.77,6.38-7.8L583,526.72l3.27-2.16c-13.81-62.24-5-153.22,35-153.22,36.64,0,53.68,135.15,52.22,138.32l2.43,8.3,7.55-21,6.07,8.11s3.32-22.1.75-39Z" transform="translate(13.87 -87.04)"/><g class="cls-6"><path class="cls-7" d="M577.66,508.48a18,18,0,0,0,3.92.87c2.19,0,4.06-1.82,5-3.89a18.68,18.68,0,0,0,1.12-6.66,5.18,5.18,0,0,0-.3-2.51,4.59,4.59,0,0,0-1.81-1.74,30,30,0,0,0-25.37-3c-2.16.74-4.4,1.89-5.35,4a6.47,6.47,0,0,0-.5,2c.15.79.28,1.57.44,2.35l2.5-5L561,511.74a11.86,11.86,0,0,0,4.48-.09l1-2.74,1.29,2.43a36.71,36.71,0,0,0,6.29-1.06C575.33,509.91,575.05,507.92,577.66,508.48Z" transform="translate(13.87 -87.04)"/><path class="cls-7" d="M555,471.28a2.07,2.07,0,0,0,1-.46,2.15,2.15,0,0,0,.5-1,15.1,15.1,0,0,0-2-11.9,3.05,3.05,0,0,0-4.23-1.61c-.16.05-.31.12-.46.18.21,4.75.53,9.68,1,14.7a3.29,3.29,0,0,0,1.27.49A7.63,7.63,0,0,0,555,471.28Z" transform="translate(13.87 -87.04)"/><path class="cls-7" d="M575.74,465.33a4,4,0,0,0-3.09,0,3.78,3.78,0,0,0-1.24,1.36,7.73,7.73,0,0,0-1.24,3,3.87,3.87,0,0,0,.86,3.13,6.13,6.13,0,0,0,1.87,1.27,29.84,29.84,0,0,0,3.6,1.85c.56.21,1-.59,1.82.34a9.09,9.09,0,0,0,1.31,1.39,2.78,2.78,0,0,0,2.89,0,7.52,7.52,0,0,0,2.09-2.08,1.62,1.62,0,0,0,.24-2.11A15.58,15.58,0,0,0,575.74,465.33Z" transform="translate(13.87 -87.04)"/><path class="cls-7" d="M603.15,457.38a5.2,5.2,0,0,0-6.42,1.92,9.19,9.19,0,0,0-.89,5.62c.19,2.38,1.06,5.24,3.32,5.71a3.87,3.87,0,0,0,3.43-1.27,7.44,7.44,0,0,0,.75-.93,6.77,6.77,0,0,0,3.12-4.9A6.15,6.15,0,0,0,603.15,457.38Z" transform="translate(13.87 -87.04)"/><path class="cls-7" d="M550,418.62c-.12,2.35-.23,4.91-.31,7.66A45.59,45.59,0,0,0,550,418.62Z" transform="translate(13.87 -87.04)"/><path class="cls-7" d="M592.37,404.35l-.11-.46a1.82,1.82,0,0,0,1.78.29,2.86,2.86,0,0,0,1.27-2,45.07,45.07,0,0,0,1.39-13.74,1.69,1.69,0,0,0-.28-1,1.61,1.61,0,0,0-1.14-.46c-1.5-.19-3.25-.28-4.29.86,0,.06-.08.13-.13.2-.31,1.37-.6,2.72-.88,4.06-.07,1.29-.1,2.58-.08,3.87a7.67,7.67,0,0,0,1.57,7.3A6.19,6.19,0,0,0,592.37,404.35Z" transform="translate(13.87 -87.04)"/><path class="cls-7" d="M597.09,436.79a39,39,0,0,0-6.83-20.31A6.06,6.06,0,0,0,587.5,414a5.65,5.65,0,0,0-3.67.4,26.7,26.7,0,0,0-14.31,13,28.28,28.28,0,0,0-2,19.63,15.19,15.19,0,0,0,2.33,5.24c2.78,3.77,8,5.13,12.4,3.84s8-4.88,10-9.13c.07-.15.12-.3.19-.44,1-1.34,2-2.67,3-4a9.58,9.58,0,0,0,1.13-1.76A8.77,8.77,0,0,0,597.09,436.79Z" transform="translate(13.87 -87.04)"/><path class="cls-7" d="M550.14,395.6a2.86,2.86,0,0,0,2.17.14,6.82,6.82,0,0,0,2.64-2,35.66,35.66,0,0,0,8.38-15.2c.77-2.92,1.16-6.14,0-8.92a4.85,4.85,0,0,0-3.5-3.19,3.49,3.49,0,0,0-1.54.17c-1,2.09-2,4.13-2.83,6.09l1.17-.15-6,12.25-.64,1.78,3.48-1.19C552.25,388.91,551.17,392.28,550.14,395.6Z" transform="translate(13.87 -87.04)"/><path class="cls-7" d="M650.24,441.15c3.19-.43,6.44-.87,9.32-2.35s5.37-4.18,5.77-7.48l.33-1.21a13.29,13.29,0,0,0-.76-5.46,11.45,11.45,0,0,0-6.57-6.29,17.84,17.84,0,0,0-9.08-.77,26.58,26.58,0,0,0-9.16,3.14,9.18,9.18,0,0,0-4.21,4c-1.5,3.42.56,7.33,2.72,10.35,2,2.77,4.44,5.63,7.74,6.16A13.44,13.44,0,0,0,650.24,441.15Z" transform="translate(13.87 -87.04)"/><path class="cls-7" d="M654.3,481.09c-3.26,2.58-3.76,7.48-3.26,11.71.16,1.37.56,2.95,1.8,3.48a3.52,3.52,0,0,0,2.13,0,17.27,17.27,0,0,0,6.92-3.31l-3.15,2.41a5,5,0,0,0,4.84-1.51,8.91,8.91,0,0,0,1.16-11.09A7.51,7.51,0,0,0,654.3,481.09Z" transform="translate(13.87 -87.04)"/><path class="cls-7" d="M682.34,473.11c-3.27,2.58-3.77,7.48-3.27,11.7.17,1.37.57,3,1.8,3.48a3.44,3.44,0,0,0,2.13,0,17.31,17.31,0,0,0,6.93-3.31l-3.15,2.42a4.79,4.79,0,0,0,4.38-1.12c.15-4.2.15-8.73-.13-13.17A7.4,7.4,0,0,0,682.34,473.11Z" transform="translate(13.87 -87.04)"/><path class="cls-7" d="M636.07,519.19a7.36,7.36,0,0,0-8.47.48,8.57,8.57,0,0,0-2.66,5.1l6.59-4.83,7.11,8.25,1.73-2.64A9.93,9.93,0,0,0,636.07,519.19Z" transform="translate(13.87 -87.04)"/><path class="cls-7" d="M610,529.08a13.66,13.66,0,0,0,.17-6.87,6.76,6.76,0,0,0-1.35-2.86,5.76,5.76,0,0,0-4.61-1.72c-1.09,0-5.71-.69-10.55,4.23L599.34,533l5-8.81,1.76,1.55,1-1.45Z" transform="translate(13.87 -87.04)"/><path class="cls-7" d="M681.65,433.26a12.72,12.72,0,0,0,6.69.36c.31-7.89.27-16-.69-21.28-.21.1-.41.19-.61.3-5.47,2.88-10.25,8.36-10.16,14.73a6.72,6.72,0,0,0,.67,3.1A5.85,5.85,0,0,0,681.65,433.26Z" transform="translate(13.87 -87.04)"/><path class="cls-7" d="M691.59,416.53c-.12-1.86-.21-3.73-.29-5.61a20.55,20.55,0,0,0-3.42,1.3l1.69,2Z" transform="translate(13.87 -87.04)"/><path class="cls-7" d="M660.71,506.41c-2,.95-3.89,2.36-4.59,4.47a8.72,8.72,0,0,0-.21,3.67,20.92,20.92,0,0,0,.37,2.24l2.51-4.71,3.43,12.1L672.41,506l3.51,12,1.94-5.39q.38-3.17.77-6.6A22,22,0,0,0,660.71,506.41Z" transform="translate(13.87 -87.04)"/><path class="cls-7" d="M617.82,419.39a8.7,8.7,0,0,0,3.66-.2A21.43,21.43,0,0,0,635,409.56a21.08,21.08,0,0,0,2.16-16.33l-.37,1.9a19.68,19.68,0,0,0-3.82-4.25c-2.8-2.52-6-5-9.68-5.55-5.54-.76-10.47,3.31-12.76,8.09a22.24,22.24,0,0,0,2.12,21.93C613.89,417.18,615.61,418.94,617.82,419.39Z" transform="translate(13.87 -87.04)"/><path class="cls-7" d="M635.42,481.59A19.36,19.36,0,0,0,625,479.66c-1.83.18-3.85.78-4.73,2.45a7.08,7.08,0,0,0-.27,4.26c.29,2,.66,4.12,2,5.63a8.37,8.37,0,0,0,4.78,2.43c2.19.46,9.35,1.6,11-.17a5.77,5.77,0,0,0,1.17-2.54c.66-2.5,1.1-5.37-.28-7.52A7.81,7.81,0,0,0,635.42,481.59Z" transform="translate(13.87 -87.04)"/><path class="cls-7" d="M655.2,464.27a3.7,3.7,0,0,0,.76-1.64c.43-1.61.71-3.45-.18-4.84a5,5,0,0,0-2.09-1.68,12.43,12.43,0,0,0-6.7-1.24,3.64,3.64,0,0,0-3,1.57,4.58,4.58,0,0,0-.18,2.75,7,7,0,0,0,1.26,3.62,5.44,5.44,0,0,0,3.08,1.57C649.52,464.67,654.14,465.4,655.2,464.27Z" transform="translate(13.87 -87.04)"/><path class="cls-7" d="M618.35,501.62a12.58,12.58,0,0,0-6.71-1.24,3.68,3.68,0,0,0-3,1.58,4.55,4.55,0,0,0-.18,2.74,7,7,0,0,0,1.27,3.63,5.37,5.37,0,0,0,3.08,1.56c1.41.3,6,1,7.09-.1a3.8,3.8,0,0,0,.75-1.64c.43-1.61.71-3.46-.18-4.85A5,5,0,0,0,618.35,501.62Z" transform="translate(13.87 -87.04)"/><path class="cls-7" d="M619.35,432.89a6.56,6.56,0,0,0-3.45,2.36c-1.32,1.43-2.67,3-2.93,4.9a8.19,8.19,0,0,0,1.45,5.12c1.17,2,5.26,8.11,7.75,8.31a5.88,5.88,0,0,0,2.75-.64c2.36-1,4.85-2.4,5.54-4.76a7.26,7.26,0,0,0-.25-4,20.41,20.41,0,0,0-5.73-9.12C623.08,433.73,621.23,432.55,619.35,432.89Z" transform="translate(13.87 -87.04)"/><path class="cls-7" d="M686.7,443.87a16.46,16.46,0,0,0-8,2.43A7.52,7.52,0,0,0,675,451a6.3,6.3,0,0,0,2.11,5.59C678.66,458,688.24,450,686.7,443.87Z" transform="translate(13.87 -87.04)"/></g><path class="cls-26" d="M526.87,401.42c-6.77,36.2,2.84,102.75,2.84,102.75l23.57.53,10.43-69.47L588,338.54C565.1,339.82,535.15,357.14,526.87,401.42Z" transform="translate(13.87 -87.04)"/><path class="cls-21" d="M536.13,374.18c11.75-16.19,21.68-13.44,35.7-15.08l-11.89,87.36-2.87,33,6.64-44.21L588,338.54C570.57,339.52,549.06,349.8,536.13,374.18Z" transform="translate(13.87 -87.04)"/><path class="cls-21" d="M530.93,404.88c7.69-41.09,34.49-60.83,56.57-64.22l.53-2.12c-22.93,1.28-61.7,25.08-61.16,62.88-11.11,31.94,2.84,102.75,2.84,102.75S525.07,436.22,530.93,404.88Z" transform="translate(13.87 -87.04)"/><path class="cls-28" d="M628.5,325.68c-7.6-.79-20.86.26-32,3.55-7.12,20,2.79,52,27.09,79.68,22.47,25.64,50.76,40.35,72.26,39.49C694.3,413.37,693.55,332.41,628.5,325.68Z" transform="translate(13.87 -87.04)"/><path class="cls-21" d="M628.85,324.84c-7.44-.77-20.42.25-31.3,3.48-7,19.62,2.74,50.86,26.52,78,22,25.11,49.69,39.5,70.74,38.66C693.27,410.68,692.53,331.43,628.85,324.84Z" transform="translate(13.87 -87.04)"/><path class="cls-26" d="M666.17,428c2.06-19.19,9.59-49.18,2.09-77.38-9.55-12.61-19.55-23.69-39.41-25.74-7.44-.77-20.42.25-31.3,3.48-3.07,8.64-2.9,19.53.28,31.33a136.82,136.82,0,0,0,11,21C626.82,408.68,645.24,425.71,666.17,428Z" transform="translate(13.87 -87.04)"/><path class="cls-26" d="M715.72,401.42c7.08,36.2-2,99.29-2,99.29l-24.62.53-9.78-70.54-27.54-92.16C675.79,339.82,707.07,357.14,715.72,401.42Z" transform="translate(13.87 -87.04)"/><path class="cls-21" d="M717.56,400.36c-4.06-42.06-36.16-57.09-58.89-61,21.08,6.29,43.57,25.21,50.87,63.13,6,31.42,4.23,98.26,4.23,98.26S727.58,420.32,717.56,400.36Z" transform="translate(13.87 -87.04)"/><path class="cls-10" d="M573.41,352.18c0,11.72,1.09,14.41,1.09,14.41L578,359c2.17,10,9.35,21.28,9.35,21.28l1.41-7.19c1.5,7.39,9.1,15.12,9.1,15.12l.22-4.88c3.47,6.78,12.28,12.79,12.28,12.79l-.86-4.32c2.57,2.08,5.3,4.2,8.23,6.35l3.8-5.42,4.88,7.48,2.85-8.91,2.62,5.25,8.43-10,3.33,5.44,3.56-11.63,3.33,7.38,5.11-16.37,2,5.73c6.77-4.64,10.16-8.4,10.21-16.61l8,1.31c-2.81-6.49-2.81-8.89-5.79-14.42l5,2.3-4-6.85c-2.05-.8-4.1-1.5-6.13-2.07-9-8.46-20.68-14.33-36.11-15.93-7.44-.77-20.42.25-31.3,3.48-.08.24-.15.48-.23.73-7.5,1.84-14.45,4.6-18.75,8.41-1.2,1.07-2.36,2.21-3.5,3.42-1.93.59-3.88,1.29-5.82,2.1l-3.9,15.36Z" transform="translate(13.87 -87.04)"/><path class="cls-8" d="M675.23,332.2S671,318,664.61,311.32a12.5,12.5,0,0,1,7.38,2.82s-6.93-12.9-13.46-17.75l8.61.7S653.53,278.92,623.8,278c-37.15-1.11-54.59,28.9-54.59,28.9l8.7-2.12s-5.29,10.42-8.59,28.4l5-2.3-4.83,20.51,7.47-6.16c0,11.72,1,14.41,1,14.41l3.28-7.61c2,10.05,8.67,21.28,8.67,21.28l1.31-7.19c1.39,7.39,8.44,15.12,8.44,15.12l.21-4.88c3.22,6.78,11.38,12.79,11.38,12.79l-.79-4.32q3.57,3.12,7.63,6.35l3.53-5.42,4.52,7.48,2.65-8.91,2.43,5.24,7.82-10,3.09,5.44,3.3-11.63,3.09,7.38,4.74-16.37,1.87,5.73c6.28-4.64,9.42-8.4,9.47-16.61l7.43,1.31c-2.61-6.49-2.61-8.89-5.37-14.42l4.66,2.3-4.9-8.93,6.44,1.49L667,325.68S671.16,326.3,675.23,332.2Z" transform="translate(13.87 -87.04)"/><path class="cls-7" d="M675.23,332.2S671,318,664.61,311.32a12.5,12.5,0,0,1,7.38,2.82s-6.93-12.9-13.46-17.75l8.61.7S653.53,278.92,623.8,278c-37.15-1.11-54.59,28.9-54.59,28.9l8.7-2.12s-5.29,10.42-8.59,28.4l5-2.3-4.83,20.51,7.47-6.16c0,11.72,1,14.41,1,14.41l3.28-7.61c2,10.05,8.67,21.28,8.67,21.28l1.31-7.19c1.39,7.39,8.44,15.12,8.44,15.12l.21-4.88c3.22,6.78,11.38,12.79,11.38,12.79l-.79-4.32q3.57,3.12,7.63,6.35l3.53-5.42,4.52,7.48,2.57-8.64-1.32-3.37-2.08,8.29-3.56-7-2.77,5q-3.21-3-6-5.9l.63,4s-6.43-5.59-9-11.89l-.17,4.53s-5.54-7.18-6.63-14l-1,6.68s-5.24-10.44-6.83-19.78l-2.58,7.07s-.82-2.49-.79-13.38l-5.88,5.72,3.8-19.06-3.92,2.14c2.6-16.7,6.76-26.39,6.76-26.39l-6.84,2c19.31-27.33,63-20.62,77-9.14l-6.77-.65C655.92,304,661.38,316,661.38,316a8.86,8.86,0,0,0-5.81-2.62c5.06,6.24,8.36,19.4,8.36,19.4-3.21-5.48-6.48-6.06-6.48-6.06l4.6,9L657,334.33l3.85,8.29-3.66-2.14c2.17,5.15,2.17,7.37,4.22,13.4l-5.84-1.21c0,7.63-2.51,11.12-7.45,15.42L645.64,359l-3.11,16.1-2.06-3.94-2.31,9.61.87-1.1,3.09,5.44,3.3-11.63,3.09,7.38,4.74-16.37,1.87,5.73c6.28-4.64,9.42-8.4,9.47-16.61l7.43,1.31c-2.61-6.49-2.61-8.89-5.37-14.42l4.66,2.3-4.9-8.93,6.44,1.49L667,325.68S671.16,326.3,675.23,332.2Z" transform="translate(13.87 -87.04)"/><polygon class="cls-7" points="654.91 287.5 643.34 298.82 645.07 302.56 651.5 294.38 654.91 287.5"/><path class="cls-29" d="M600.69,320.25c0,.66.86,14,.86,14,10.78,5.05,21.25,9.55,35.55-3.11l.44-10.33C623.72,322.22,614.35,321.8,600.69,320.25Z" transform="translate(13.87 -87.04)"/><path class="cls-30" d="M602.5,322c0,.57.58,11.74.58,11.74,9.32,3.85,20,8.25,32.55-2.89l0-8.18C623.13,323.19,614.16,324.41,602.5,322Z" transform="translate(13.87 -87.04)"/><path class="cls-31" d="M633.43,331.56l-.28-3.21c-10.61.39-17.93,1.91-27.81,0,0,.25.17,3.25.32,5.68C613.67,337.24,622.82,340.38,633.43,331.56Z" transform="translate(13.87 -87.04)"/><polygon class="cls-29" points="617.02 246.59 616.77 244.07 619.14 243.49 627.6 244.4 618.43 242.6 616.23 241.27 615.34 239.45 615.57 244.1 617.02 246.59"/><polygon class="cls-29" points="649.54 244.91 649.52 242.8 646.35 242.45 640.49 243.23 647.38 241.46 649.96 237.69 650.32 242.16 649.54 244.91"/><path class="cls-21" d="M639.52,314.69c2.75,3.15-.41,9.7-6.1,9.28-6.27-.46-12.71-7.89-12.71-7.89Z" transform="translate(13.87 -87.04)"/><path class="cls-26" d="M637,315.06c2.08,2.54-.85,7.44-5.42,7-5-.47-22-7.51-22-7.51C614.07,309.11,631.31,308.14,637,315.06Z" transform="translate(13.87 -87.04)"/><path class="cls-21" d="M596.54,314.08c-3.62,12.7,8.94,12.26,12.18,11.89,9.88-1.1,12.41-9.19,12.41-9.19Z" transform="translate(13.87 -87.04)"/><path class="cls-26" d="M598.89,316c-3.47,8.83,6.43,8.81,8.76,8.55,7.11-.79,15.38-8.14,15.38-8.14C609.83,307.88,601.67,308.86,598.89,316Z" transform="translate(13.87 -87.04)"/><path d="M612.61,316c0,1.51-.59,3.15-2.67,3s-1.82-3-1.82-3C608.13,312.43,612.62,312.44,612.61,316Z" transform="translate(13.87 -87.04)"/><path d="M630.49,316c0,1.51-.59,3.15-2.67,3s-1.83-3-1.83-3C626,312.43,630.5,312.44,630.49,316Z" transform="translate(13.87 -87.04)"/><path class="cls-7" d="M622,319.08c14.84-1,27.91,8.44,27.91,8.44s-14.83-.26-24.05-2.13S622,319.08,622,319.08Z" transform="translate(13.87 -87.04)"/><path class="cls-7" d="M584.29,328.62s36.62,2.27,35.25-5.52l-5-4C604.4,328,584.29,328.62,584.29,328.62Z" transform="translate(13.87 -87.04)"/><path class="cls-7" d="M654.52,329.82s-36.64,1.13-35.28-6.65l5-4C634.25,328.05,654.52,329.82,654.52,329.82Z" transform="translate(13.87 -87.04)"/><path class="cls-8" d="M622.66,320.2c14.87-.61,33.55,9.69,33.55,9.69s-20.79-1.16-29.93-3.28S622.66,320.2,622.66,320.2Z" transform="translate(13.87 -87.04)"/><path class="cls-19" d="M582.88,326.75a5.75,5.75,0,0,1-6-7.14c.85-3.61,5.62-4.91,9-3.63S582.88,326.75,582.88,326.75Z" transform="translate(13.87 -87.04)"/><path class="cls-18" d="M582.87,324.59a3.56,3.56,0,0,1-3.68-4.42c.53-2.23,3.48-3,5.56-2.25S582.87,324.59,582.87,324.59Z" transform="translate(13.87 -87.04)"/><path class="cls-19" d="M583.91,323.62a2.14,2.14,0,0,1-2.22-2.67c.31-1.35,2.1-1.84,3.36-1.36S583.91,323.62,583.91,323.62Z" transform="translate(13.87 -87.04)"/><path class="cls-19" d="M655.81,326.75a5.75,5.75,0,0,0,5.94-7.14c-.85-3.61-5.62-4.91-9-3.63S655.81,326.75,655.81,326.75Z" transform="translate(13.87 -87.04)"/><path class="cls-18" d="M655.81,324.59a3.55,3.55,0,0,0,3.68-4.42c-.52-2.23-3.48-3-5.56-2.25S655.81,324.59,655.81,324.59Z" transform="translate(13.87 -87.04)"/><path class="cls-19" d="M654.77,323.62A2.15,2.15,0,0,0,657,321c-.32-1.35-2.11-1.84-3.36-1.36S654.77,323.62,654.77,323.62Z" transform="translate(13.87 -87.04)"/><path class="cls-7" d="M614.92,319.76c-14.32-1.82-27.47,6.89-27.47,6.89s14.38.55,23.4-.81S614.92,319.76,614.92,319.76Z" transform="translate(13.87 -87.04)"/><path class="cls-8" d="M615.34,320.76c-14.38-1.42-32,7.81-32,7.81s19.19,0,28.15-1.62S615.34,320.76,615.34,320.76Z" transform="translate(13.87 -87.04)"/><path class="cls-7" d="M647.49,317.65a19.59,19.59,0,0,1,7.42-2.35c-19.86-6.31-42.31-7.07-52.41-5.18C602.5,310.12,627.08,310.59,647.49,317.65Z" transform="translate(13.87 -87.04)"/><path class="cls-7" d="M589.76,317.83a18.85,18.85,0,0,0-7.55-3.32c19.9-6.71,42.57-6.4,52.82-3.49C635,311,610.21,310.23,589.76,317.83Z" transform="translate(13.87 -87.04)"/><path class="cls-9" d="M623.49,317.24c1.61,2.41,1.26,4.52-1.51,5.75s-5.52,1.09-6.81-.54.12-6,.12-6Z" transform="translate(13.87 -87.04)"/><path class="cls-26" d="M622.78,317.05c1.17,2.17.87,4-1.26,5s-4.22.79-5.16-.68-.48-5.37-.48-5.37Z" transform="translate(13.87 -87.04)"/><path class="cls-7" d="M606.64,363.36s1.9,17,11.11,26.62l2.7-4.13C611.92,378.48,606.64,363.36,606.64,363.36Z" transform="translate(13.87 -87.04)"/><path class="cls-7" d="M597.72,350.66s-5.25,15.48-1,25.59l4.09-3.2C596.26,365,597.72,350.66,597.72,350.66Z" transform="translate(13.87 -87.04)"/><path class="cls-7" d="M592.9,337.44s-8.71,13.89-6.88,24.7l4.72-2.2C588.14,351.1,592.9,337.44,592.9,337.44Z" transform="translate(13.87 -87.04)"/><path class="cls-7" d="M647.65,339.83s12.59,10.74,12.75,22.51l-5.74-.36C655.77,351.9,647.65,339.83,647.65,339.83Z" transform="translate(13.87 -87.04)"/><path class="cls-32" d="M657.29,415.26c0-1.54-2.86-2.79-6.4-2.79s-6.4,1.25-6.4,2.79,2.87,2.8,6.4,2.8S657.29,416.81,657.29,415.26Z" transform="translate(13.87 -87.04)"/><path class="cls-7" d="M589.3,313.72c3.93-9.59,14-16.91,14-16.91S589,301.87,584.16,310C581.06,315.15,589.3,313.72,589.3,313.72Z" transform="translate(13.87 -87.04)"/><path class="cls-8" d="M617.78,293.2c10.21-4,24.06-3.55,24.06-3.55s-16.57-4.9-26.55-2.29C609,289,617.78,293.2,617.78,293.2Z" transform="translate(13.87 -87.04)"/><path class="cls-7" d="M657,300.1c3.79,1.48,1,3.65,1,3.65-9-3.86-25.23-5.9-25.23-5.9S649.85,297.33,657,300.1Z" transform="translate(13.87 -87.04)"/><path class="cls-8" d="M618.45,287.22c6.38.16-.51,5.14-.51,5.14-10.59-1.55-23.55,2.05-23.55,2.05S608.4,287,618.45,287.22Z" transform="translate(13.87 -87.04)"/><path class="cls-21" d="M545.19,496.35c2.34,2.95,5.58,6.38,7.19,6.8s9.25,2.14,10.37.77,2.51-4.42,1.08-6.26-7.49-2.1-8.56-2.83-4.51-5.65-4.51-5.65Z" transform="translate(13.87 -87.04)"/><path class="cls-21" d="M538.81,504.82c2.46,3,5.86,6.44,7.56,6.88s9.8,2.29,11,.95,2.71-4.34,1.21-6.19-7.92-2.22-9.05-3-4.73-5.69-4.73-5.69Z" transform="translate(13.87 -87.04)"/><path class="cls-26" d="M533.35,466c-4,11.4-8.37,29-7.56,32.7s7.72,17.75,9.53,19,12.4,5.31,15.33,4a5.15,5.15,0,0,0,2.16-7.08c-1.26-1.8-9.53-3-10.19-4.22S539.55,505,540,504s13.7-7.27,14.65-11.52-4.36-17.45-1.72-24.42Z" transform="translate(13.87 -87.04)"/><path class="cls-21" d="M543.34,503.8c-2.56-.74-8.29-5.33,3.32-16.3,5.14-4.85,3.71-15.4,8.64-19.18-1.21,6.44,3,21.06,2.06,25.31S543.74,502.86,543.34,503.8Z" transform="translate(13.87 -87.04)"/><path class="cls-26" d="M532.28,497.48c.42,4.06,7.17,8,9,8.51s10.36,2.51,12,1.12,4.06-4.5,2.84-6.46-8.85-2.88-9.93-3.67c-4.59-4.37.73-14.8-4.88-14.32C535.21,483.17,531.74,492.38,532.28,497.48Z" transform="translate(13.87 -87.04)"/><path class="cls-21" d="M695.87,495.19c-2.42,2.88-5.76,6.23-7.38,6.6s-9.31,1.88-10.39.48-2.38-4.48-.9-6.29,7.55-1.88,8.64-2.59,4.67-5.52,4.67-5.52Z" transform="translate(13.87 -87.04)"/><path class="cls-21" d="M702,503.84c-2.54,2.9-6,6.27-7.75,6.66s-9.86,2-11,.65-2.59-4.41-1-6.23,8-2,9.14-2.7,4.89-5.56,4.89-5.56Z" transform="translate(13.87 -87.04)"/><path class="cls-26" d="M713.4,459.57c-.76,13.63,2.71,34.84,1.8,38.54s-8.23,17.53-10.08,18.76-12.55,5-15.44,3.62-3.27-5.38-2-7.14,9.62-2.7,10.31-3.93,3.23-5.47,2.85-6.42-13.49-7.65-14.32-11.93,4.87-17.32,2.42-24.36Z" transform="translate(13.87 -87.04)"/><path class="cls-21" d="M700.88,503a.58.58,0,0,1,0,.14c6.62-5.93.87-5.46-5.6-14.6-3.69-5.21-2.75-20.48-8-21.71l-.76.06c.34,7.63-3.61,21-2.79,25.25S700.51,502.05,700.88,503Z" transform="translate(13.87 -87.04)"/><path class="cls-26" d="M711.65,492.61c-1.18,4.46-9.82,9.39-12,10.08S687,506.36,685.24,505s-4.06-4.53-2.29-6.77,10.95-3.94,12.35-4.9c6.16-5.17,1.6-16,8.14-16C710.54,477.32,713.13,487,711.65,492.61Z" transform="translate(13.87 -87.04)"/><path d="M631.07,169.86H620.71V192H600.06V169.86H546.91l35.24-81.41,21.81.13L577.74,149.2h22.32V120.62h20.65V149.2h10.36Z" transform="translate(13.87 -87.04)"/><path d="M638.23,140.44c0-31.27,17.21-53.4,42.79-53.4s42.65,22.13,42.65,53.4S706.53,193.77,681,193.77,638.23,171.65,638.23,140.44Zm64.66,0c0-19.06-8.57-32.55-22-32.55s-22,13.49-22,32.55,8.57,32.42,22,32.42S702.89,159.43,702.89,140.44Z" transform="translate(13.87 -87.04)"/><path d="M813.65,169.86H803.29V192H782.63V169.86H729.49l35.24-81.41,21.8.13L760.31,149.2h22.32V120.62h20.66V149.2h10.36Z" transform="translate(13.87 -87.04)"/><path d="M655.36,499.38c0,.89-.26,1.26-1.14,1.26H632.65c-.88,0-1.16-.37-1.16-1.26v-.1c0-.88.28-1.62,1.16-1.62h21.57c.88,0,1.14.74,1.14,1.62Z" transform="translate(13.87 -87.04)"/><path d="M655.36,510.94c0,.88-.26,1.64-1.14,1.64H632.65c-.88,0-1.16-.76-1.16-1.64v-.1c0-.88.28-1.25,1.16-1.25h21.57c.88,0,1.14.37,1.14,1.25Z" transform="translate(13.87 -87.04)"/><polygon points="663 403.11 663 406.26 673.39 406.26 681.78 414.19 691.27 414.88 691.19 421.51 681.67 422.53 672.98 430.33 662.6 430.33 662.6 433.12 657.99 433.06 657.99 403.04 663 403.11"/><polygon points="610.55 404.03 610.55 407.27 600.26 407.27 591.96 415.42 582.55 416.13 582.64 422.95 592.06 423.99 600.67 432.01 610.95 432.01 610.95 434.88 615.51 434.81 615.51 403.97 610.55 404.03"/><path d="M570.16,503.29,528,496.56c-11.39-1.82-23.74-5.18-35.33-3.67-11.87,1.54-19.06,9.67-26.11,18.57-7.6,9.58-15.76,19-25.88,26-19.23,13.33-43.22,17.2-66.18,15.37a155.1,155.1,0,0,1-35.82-7.51c-12-3.92-23.93-8.52-36.56-10.18-13.11-1.72-25.61,1.09-38.27,4.25A191.87,191.87,0,0,1,224,545.1c-26.43,1-53.08-1.66-79.28,3-7.3,1.3-14.09,2.71-21.57,2-3.78-.33-7.55-.93-11.29-1.53a217.38,217.38,0,0,1-23.68-5.09c-13.72-3.82-33.8-10.14-39.37-25-2.78-7.41-4.22-13.83-11-18.75-5.73-4.14-12.85-5.72-19.8-6.1A81.58,81.58,0,0,0-11.8,498c-3.64,1.22-2.08,7,1.6,5.78a79.81,79.81,0,0,1,24.55-4.12c6.21,0,12.75.76,18.2,3.94,6.88,4,8,10.12,10.63,17,5.25,14,21,21.22,34.08,25.83A176.92,176.92,0,0,0,125,556.31c13,.7,25.92-3.6,38.89-4.49s26.26-.6,39.38-.51c13.75.09,27.53,0,41.17-1.87,12.73-1.71,24.88-5.88,37.52-8,26.35-4.29,49.86,10,75,14.93,21.45,4.23,44.36,4.25,65.19-3a90.18,90.18,0,0,0,31.39-18.67,142.69,142.69,0,0,0,14-15.07c4-4.9,7.68-10.31,12.43-14.57,11.87-10.65,28.48-5.65,42.56-3.4l46,7.35c3.78.6,5.4-5.18,1.59-5.79Z" transform="translate(13.87 -87.04)"/><polygon class="cls-33" points="579.88 405.14 578.65 408.47 590.85 410.77 579.88 405.14"/><polygon class="cls-33" points="591.8 389.58 588.24 391.36 597.26 401.89 591.8 389.58"/><polygon class="cls-33" points="612.74 384.83 608.92 383.72 608.38 397.57 612.74 384.83"/><polygon class="cls-33" points="658.48 382.65 654.52 383.39 659.39 396.63 658.48 382.65"/><polygon class="cls-33" points="680.6 385.21 676.79 382.77 671.78 397.71 680.6 385.21"/><polygon class="cls-33" points="697.44 402.86 696.3 398.48 682.48 406.03 697.44 402.86"/><path d="M676.4,508.4a188.14,188.14,0,0,1,42.17,13.16c11.87,5.38,22,13,35.61,11,6.68-.94,13.2-2.92,19.84-4.16a200.12,200.12,0,0,1,22.75-2.91,209,209,0,0,1,43,1.38c29.18,4,55.37,15.63,82.08,27.41,25,11,51.49,21.25,79.27,20.12,25.59-1,47-13.77,68.76-26,11.82-6.66,23.87-12.87,37-16.44,14.14-3.82,28.8-5,43.38-5.51,24.1-.88,48.18-1.35,72.26-2.64,22-1.19,44-1.89,66-1.76,12.84.07,25.85,4.18,38.53,6.19,8.21,1.31,16.47,2.51,24.76,3,4.58.28,11.62,1.17,15.65-1.72,3.11-2.23.12-7.44-3-5.18s-9.47,1.1-13,.87c-7.62-.5-15.2-1.58-22.74-2.78-11.1-1.77-22.09-4.58-33.2-6.2-4.06-.58-8.36-.23-12.46-.23q-9.76,0-19.53.15c-10,.18-20,.56-30.07,1.06-22.07,1.1-44.11,2.31-66.2,2.79-27.1.58-54.29,1.36-79.49,12.45-22.64,10-42.56,25.93-66.58,32.74-28.09,8-57.33,0-83.55-10.66-26-10.6-50.78-23.82-78.3-30.16a213.17,213.17,0,0,0-90.48-1.07c-8.22,1.69-17.08,5.12-25.53,3.09-7.6-1.82-14.63-6.84-21.71-10A194.46,194.46,0,0,0,678,502.61c-3.78-.72-5.39,5.06-1.6,5.79Z" transform="translate(13.87 -87.04)"/><path d="M581.89,215.64v35.57h-.32l-20.68-20.12V250.6h-7V215.08h.35l20.63,20.07V215.64Z" transform="translate(13.87 -87.04)"/><path d="M586.43,233.19a18.12,18.12,0,1,1,18.08,18A18.19,18.19,0,0,1,586.43,233.19Zm29.15-.05a11,11,0,1,0-11.07,11A11.09,11.09,0,0,0,615.58,233.14Z" transform="translate(13.87 -87.04)"/><path d="M647.51,222.66H639v27.9h-7v-27.9h-8.58v-6.93h24.16Z" transform="translate(13.87 -87.04)"/><path d="M671.4,222.62v7h12v7h-12v14h-7v-35h21v7Z" transform="translate(13.87 -87.04)"/><path d="M687.09,233.19a18.12,18.12,0,1,1,18.08,18A18.19,18.19,0,0,1,687.09,233.19Zm29.15-.05a11,11,0,1,0-11.07,11A11.09,11.09,0,0,0,716.24,233.14Z" transform="translate(13.87 -87.04)"/><path d="M727.56,237.68v-22h7v21.93a6.4,6.4,0,1,0,12.79,0V215.73h7v22a13.44,13.44,0,1,1-26.87,0Z" transform="translate(13.87 -87.04)"/><path d="M788.18,215.64v35.57h-.32l-20.68-20.12V250.6h-7V215.08h.35l20.63,20.07V215.64Z" transform="translate(13.87 -87.04)"/><path d="M822.49,233.19c0,10.8-6.87,17.37-18.13,17.37H794.23V215.75l10.13,0C815.62,215.71,822.49,222.32,822.49,233.19Zm-7.07,0c0-6.52-4.19-10.5-11.08-10.5h-3.13v20.92h3.2C811.25,243.58,815.42,239.65,815.42,233.16Z" transform="translate(13.87 -87.04)"/><path d="M461.09,665.59h1.73V682h7.76v1.74h-9.5V665.6Z" transform="translate(13.87 -87.04)"/><path d="M477.8,671.83a4.57,4.57,0,0,1,3.89,2l0,.08h0V672l0,0h1.68l0,0v11.7l0,0h-1.68l0,0v-1.91h0a4.51,4.51,0,0,1-4,2.06h0a5.6,5.6,0,0,1-4.21-1.93,6.13,6.13,0,0,1-1.51-4v-.15a6,6,0,0,1,1.68-4.16A5.68,5.68,0,0,1,477.8,671.83Zm-4.12,6v.06a4.25,4.25,0,0,0,1.66,3.43,3.88,3.88,0,0,0,6-1.83,4.67,4.67,0,0,0,.27-1.54v-.27a4.58,4.58,0,0,0-.68-2.26,3.56,3.56,0,0,0-3.11-1.79,4,4,0,0,0-3.81,2.47A4.55,4.55,0,0,0,473.68,677.79Z" transform="translate(13.87 -87.04)"/><path d="M499.29,671.83v0h0l0,0a5.55,5.55,0,0,1,3.87,1.6,6.06,6.06,0,0,1,1.27,1.76,6.19,6.19,0,0,1,.57,2.5V678a6.06,6.06,0,0,1-1.73,4.17,5.76,5.76,0,0,1-4.13,1.7,4.56,4.56,0,0,1-3.89-2l0-.06h0V689l0,0h-1.66l0,0V672.14l0,0h1.66l0,0v1.76A4.54,4.54,0,0,1,499.29,671.83Zm-3.94,6V678a4.5,4.5,0,0,0,1.09,2.87,3.45,3.45,0,0,0,2.72,1.25,3.94,3.94,0,0,0,3.69-2.26,4.32,4.32,0,0,0,.46-1.91v-.19a4.27,4.27,0,0,0-1.31-3,3.76,3.76,0,0,0-2.65-1.09,3.69,3.69,0,0,0-3.7,2.59A4.6,4.6,0,0,0,495.35,677.83Z" transform="translate(13.87 -87.04)"/><path d="M513.22,671.83a4.57,4.57,0,0,1,3.89,2l0,.08h0V672l0,0h1.67l0,0v11.7l0,0h-1.67l0,0v-1.91h0a4.51,4.51,0,0,1-4,2.06h0a5.6,5.6,0,0,1-4.21-1.93,6.13,6.13,0,0,1-1.51-4v-.15A6,6,0,0,1,509,673.6,5.72,5.72,0,0,1,513.22,671.83Zm-4.12,6v.06a4.26,4.26,0,0,0,1.65,3.43,3.89,3.89,0,0,0,6-1.83,4.67,4.67,0,0,0,.27-1.54v-.27a4.58,4.58,0,0,0-.68-2.26,3.56,3.56,0,0,0-3.11-1.79,4,4,0,0,0-3.81,2.47A4.55,4.55,0,0,0,509.1,677.79Z" transform="translate(13.87 -87.04)"/><path d="M526.87,671.87a4.81,4.81,0,0,1,2.76.85,2.78,2.78,0,0,1,.42-.4,2.47,2.47,0,0,1,.83-.37,2.7,2.7,0,0,1,.62-.08h.39v1.71h-.32a.77.77,0,0,0-.59.22.38.38,0,0,0-.1.23,4.14,4.14,0,0,1,.4.84,4.6,4.6,0,0,1,.22,1.36,4.26,4.26,0,0,1-1.21,3,4.75,4.75,0,0,1-.76.62,4.34,4.34,0,0,1-.83.45,4.85,4.85,0,0,1-1.78.34h-.08a4.8,4.8,0,0,1-2.07-.47,1,1,0,0,0-.23.61c0,.2.06.32.18.37a4.69,4.69,0,0,0,2.28.35h.87a5.61,5.61,0,0,1,3.74,1.12,5.71,5.71,0,0,1,.48.52,3.21,3.21,0,0,1,.61,1.87,3.46,3.46,0,0,1-.64,2,4.34,4.34,0,0,1-.57.64,5.15,5.15,0,0,1-.72.56,4.94,4.94,0,0,1-.76.4,7.65,7.65,0,0,1-1,.33,7.49,7.49,0,0,1-1.5.19h-.42a7.16,7.16,0,0,1-2.26-.39,6.73,6.73,0,0,1-1-.49,6.6,6.6,0,0,1-.7-.52,5.69,5.69,0,0,1-.48-.54,3.31,3.31,0,0,1-.68-1.93v-.13a3.62,3.62,0,0,1,.8-2.1,3.24,3.24,0,0,1,.61-.58l.07-.06a2.06,2.06,0,0,1-.62-1.54v0a2.64,2.64,0,0,1,.55-1.59.06.06,0,0,0,0,0,4.77,4.77,0,0,1-.48-.63,4.28,4.28,0,0,1-.63-2.23,4.23,4.23,0,0,1,1.14-2.89,5.61,5.61,0,0,1,.56-.52,5,5,0,0,1,.8-.49A5,5,0,0,1,526.87,671.87Zm-3.2,13.25v0a1.84,1.84,0,0,0,.87,1.45,4.84,4.84,0,0,0,2.77.73,4.7,4.7,0,0,0,2.64-.72,2.62,2.62,0,0,0,.48-.42A1.76,1.76,0,0,0,531,685v0a1.44,1.44,0,0,0-.49-1,2.46,2.46,0,0,0-1-.52,6,6,0,0,0-1.47-.2h-1.18a11.44,11.44,0,0,1-1.64-.11,5,5,0,0,0-.79.62A2.14,2.14,0,0,0,523.67,685.12Zm.32-8.92v.11a2.46,2.46,0,0,0,.57,1.52,2.58,2.58,0,0,0,.46.45,3.07,3.07,0,0,0,1.87.62,3,3,0,0,0,2-.76,2.5,2.5,0,0,0,.86-1.89,2.54,2.54,0,0,0-.78-1.81,3.1,3.1,0,0,0-.86-.58,3.15,3.15,0,0,0-1.22-.26h-.06a3,3,0,0,0-1.57.45,2.75,2.75,0,0,0-.57.47,2.47,2.47,0,0,0-.5.74A2.36,2.36,0,0,0,524,676.2Z" transform="translate(13.87 -87.04)"/><path d="M537,665.59h.1a1.24,1.24,0,0,1,.87.39,1.28,1.28,0,0,1,.32.81v.06a1.19,1.19,0,0,1-.45.93,1.17,1.17,0,0,1-.75.28H537a1.2,1.2,0,0,1-1-.48,1.17,1.17,0,0,1-.26-.7v-.1a1.22,1.22,0,0,1,.4-.87A1.2,1.2,0,0,1,537,665.59Zm-.8,6.36h1.72v11.75h-1.73V672Z" transform="translate(13.87 -87.04)"/><path d="M546.88,672h.21q3.48,0,4.68,2.67a4.4,4.4,0,0,1,.31,1.65v7.41l0,0h-1.67l0,0v-7.41a2.39,2.39,0,0,0-1.87-2.42,5.73,5.73,0,0,0-1.7-.16,3.57,3.57,0,0,0-2.32.64,2.28,2.28,0,0,0-.92,2v7.31l0,0h-1.66l0,0V672.16l0,0h1.66l0,0v1.16A4.53,4.53,0,0,1,546.88,672Z" transform="translate(13.87 -87.04)"/><path d="M560.91,671.83a4.57,4.57,0,0,1,3.89,2l0,.08h0V672l0,0h1.68l0,0v11.7l0,0h-1.68l0,0v-1.91h0a4.5,4.5,0,0,1-4,2.06h0a5.6,5.6,0,0,1-4.21-1.93,6.13,6.13,0,0,1-1.51-4v-.15a6,6,0,0,1,1.68-4.16A5.68,5.68,0,0,1,560.91,671.83Zm-4.12,6v.06a4.25,4.25,0,0,0,1.66,3.43,3.88,3.88,0,0,0,6-1.83,4.67,4.67,0,0,0,.27-1.54v-.27a4.58,4.58,0,0,0-.68-2.26,3.56,3.56,0,0,0-3.11-1.79,4,4,0,0,0-3.81,2.47A4.55,4.55,0,0,0,556.79,677.79Z" transform="translate(13.87 -87.04)"/><path d="M581.64,671.83v0l0,0h0a4.46,4.46,0,0,1,4,2.07h0v-1.76l0,0h1.67l0,0V689l0,0h-1.67l0,0v-7.26h0a4.24,4.24,0,0,1-.94,1,4.62,4.62,0,0,1-3,1,5.66,5.66,0,0,1-4.84-2.58,6,6,0,0,1-1-3.35v-.15a6,6,0,0,1,2-4.5A5.6,5.6,0,0,1,581.64,671.83Zm-4,6v.07A4.28,4.28,0,0,0,579,681a3.89,3.89,0,0,0,2.81,1,3.52,3.52,0,0,0,3.08-1.78,4.4,4.4,0,0,0,.7-2.28v-.27a4.48,4.48,0,0,0-1.27-3.13,3.73,3.73,0,0,0-2.76-1,3.9,3.9,0,0,0-3.26,1.84A4.58,4.58,0,0,0,577.65,677.81Z" transform="translate(13.87 -87.04)"/><path d="M591.2,672h1.66l0,0v7.41a2.41,2.41,0,0,0,2.08,2.47,5.73,5.73,0,0,0,1.4.11,4.21,4.21,0,0,0,1.89-.33,2.42,2.42,0,0,0,1.28-1.28,4,4,0,0,0,.16-1.11V672l0,0h1.67l0,0v11.52l0,0h-1.67l0,0v-1.15a4.68,4.68,0,0,1-3.43,1.36,5.58,5.58,0,0,1-3.44-.94,4,4,0,0,1-1.67-3.33V672Z" transform="translate(13.87 -87.04)"/><path d="M609.8,671.84a5.47,5.47,0,0,1,4.38,2.26,6.16,6.16,0,0,1,1.2,3.45v.15c0,.38,0,.57-.08.57h-9.4a4.43,4.43,0,0,0,.5,1.67,3.84,3.84,0,0,0,3.37,2.16,3.73,3.73,0,0,0,2.93-1.48,4.25,4.25,0,0,0,.57-1h0c.66.26,1.19.49,1.57.67a5.91,5.91,0,0,1-1.21,1.82,5.44,5.44,0,0,1-3.88,1.67,5.51,5.51,0,0,1-4.42-2.27,6.25,6.25,0,0,1-1.2-3.65v-.11a6.1,6.1,0,0,1,1.77-4.34A5.36,5.36,0,0,1,609.8,671.84Zm-3.72,4.72h7.4a4.14,4.14,0,0,0-1.76-2.39,3.55,3.55,0,0,0-2-.58,3.77,3.77,0,0,0-3.08,1.68A4.46,4.46,0,0,0,606.08,676.56Z" transform="translate(13.87 -87.04)"/><path d="M624.6,665.59h1.66l0,0v8.29h0a4.72,4.72,0,0,1,1-1.14,4.65,4.65,0,0,1,2.88-.94,5.7,5.7,0,0,1,4.86,2.6,6.08,6.08,0,0,1,1,3.27V678a5.91,5.91,0,0,1-3.31,5.3,5.85,5.85,0,0,1-2.39.56h-.08a4.47,4.47,0,0,1-4-2.06h0v1.92l0,0H624.6l0,0V665.62Zm1.8,12.11v.13a4.42,4.42,0,0,0,1.66,3.55,4,4,0,0,0,5.63-1.17,4.42,4.42,0,0,0,.67-2.26v-.2a4.3,4.3,0,0,0-1.51-3.26,4,4,0,0,0-2.66-.9,3.66,3.66,0,0,0-3.43,2.42A4.72,4.72,0,0,0,626.4,677.7Z" transform="translate(13.87 -87.04)"/><path d="M639.14,672h1.66l0,0v7.41a2.41,2.41,0,0,0,2.08,2.47,5.73,5.73,0,0,0,1.4.11,4.21,4.21,0,0,0,1.89-.33,2.42,2.42,0,0,0,1.28-1.28,4,4,0,0,0,.16-1.11V672l0,0h1.68l0,0v11.52l0,0h-1.68l0,0v-1.15a4.68,4.68,0,0,1-3.43,1.36,5.56,5.56,0,0,1-3.44-.94,4,4,0,0,1-1.68-3.33V672Z" transform="translate(13.87 -87.04)"/><path d="M656.88,671.77h.17a5.08,5.08,0,0,1,2.4.6,4.64,4.64,0,0,1,.79.54,4.37,4.37,0,0,1,.61.62,1.55,1.55,0,0,1,.19.28c-.75.43-1.25.72-1.49.88h0a2.43,2.43,0,0,0-.67-.64,3.31,3.31,0,0,0-1.92-.55,3.39,3.39,0,0,0-2.12.64,1.47,1.47,0,0,0-.55,1.09.77.77,0,0,0,.35.69,1.38,1.38,0,0,0,.39.23,8.75,8.75,0,0,0,1.86.6l1.57.3a5.35,5.35,0,0,1,1,.35,4.81,4.81,0,0,1,.76.46,4.09,4.09,0,0,1,.46.43,3,3,0,0,1,.74,1.91v.08a3.28,3.28,0,0,1-.8,2.08,4.74,4.74,0,0,1-.51.48,5.18,5.18,0,0,1-.72.44,5.58,5.58,0,0,1-2.44.56h-.16a5.51,5.51,0,0,1-2.64-.67,4.81,4.81,0,0,1-1.88-1.89,6.47,6.47,0,0,1,.72-.41l.79-.43a3.22,3.22,0,0,0,1.66,1.42,4,4,0,0,0,1.44.25,3.78,3.78,0,0,0,2-.51,1.84,1.84,0,0,0,.45-.35,1.56,1.56,0,0,0,.41-1c0-.55-.35-1-1-1.3a4.4,4.4,0,0,0-.72-.23,19.49,19.49,0,0,1-3.11-.75c-1.53-.56-2.29-1.47-2.29-2.71v0a3.07,3.07,0,0,1,.86-2.08,3.43,3.43,0,0,1,.57-.5,4.35,4.35,0,0,1,1.28-.62A5.8,5.8,0,0,1,656.88,671.77Z" transform="translate(13.87 -87.04)"/><path d="M669.11,671.87h.32a5.42,5.42,0,0,1,3.49,1.36,6.71,6.71,0,0,1,1.07,1.22l-1.44,1a4,4,0,0,0-2.18-1.66,3.18,3.18,0,0,0-1-.16h-.2a3.8,3.8,0,0,0-2.74,1.28,4.37,4.37,0,0,0-1.12,3v.07a4.3,4.3,0,0,0,1.33,3.12,3.86,3.86,0,0,0,2.64,1.08,3.91,3.91,0,0,0,3.11-1.6l.19-.26,1.46.94a5.62,5.62,0,0,1-4.76,2.65,5.53,5.53,0,0,1-3.87-1.59,6,6,0,0,1-1.84-4.33v-.14a6.07,6.07,0,0,1,1.82-4.32A5.47,5.47,0,0,1,669.11,671.87Z" transform="translate(13.87 -87.04)"/><path d="M681.84,671.83a4.56,4.56,0,0,1,3.89,2l0,.08h0V672l0,0h1.67l0,0v11.7l0,0h-1.67l0,0v-1.91h0a4.5,4.5,0,0,1-4,2.06h0a5.57,5.57,0,0,1-4.21-1.93,6.08,6.08,0,0,1-1.51-4v-.15a6,6,0,0,1,1.67-4.16A5.68,5.68,0,0,1,681.84,671.83Zm-4.12,6v.06a4.25,4.25,0,0,0,1.66,3.43,3.88,3.88,0,0,0,6-1.83,4.67,4.67,0,0,0,.27-1.54v-.27a4.48,4.48,0,0,0-.68-2.26,3.56,3.56,0,0,0-3.11-1.79,4,4,0,0,0-3.81,2.47A4.55,4.55,0,0,0,677.72,677.79Z" transform="translate(13.87 -87.04)"/><path d="M695,671.77h.18a5.08,5.08,0,0,1,2.4.6,4.64,4.64,0,0,1,.79.54,4.37,4.37,0,0,1,.61.62,1.22,1.22,0,0,1,.18.28c-.75.43-1.24.72-1.48.88h0a2.38,2.38,0,0,0-.66-.64,3.31,3.31,0,0,0-1.92-.55,3.37,3.37,0,0,0-2.12.64,1.48,1.48,0,0,0-.56,1.09.78.78,0,0,0,.36.69,1.46,1.46,0,0,0,.38.23,9.17,9.17,0,0,0,1.86.6l1.57.3a5.23,5.23,0,0,1,1,.35,4.81,4.81,0,0,1,.76.46,4.39,4.39,0,0,1,.45.43,2.91,2.91,0,0,1,.75,1.91v.08a3.24,3.24,0,0,1-.81,2.08,3.38,3.38,0,0,1-.51.48,4.62,4.62,0,0,1-.71.44,5.61,5.61,0,0,1-2.44.56h-.16a5.51,5.51,0,0,1-2.64-.67,1.33,1.33,0,1,1-1.17-2.3l.8-.43a3.22,3.22,0,0,0,1.66,1.42,4,4,0,0,0,1.43.25,3.79,3.79,0,0,0,2-.51,2,2,0,0,0,.44-.35,1.51,1.51,0,0,0,.41-1,1.46,1.46,0,0,0-1-1.3,4.4,4.4,0,0,0-.72-.23,19.49,19.49,0,0,1-3.11-.75c-1.53-.56-2.29-1.47-2.29-2.71v0a3.06,3.06,0,0,1,.85-2.08,3.43,3.43,0,0,1,.57-.5,4.3,4.3,0,0,1,1.29-.62A5.73,5.73,0,0,1,695,671.77Z" transform="translate(13.87 -87.04)"/><path d="M713.82,672H714q3.48,0,4.68,2.67a4.4,4.4,0,0,1,.31,1.65v7.41l0,0h-1.67l0,0v-7.41a2.39,2.39,0,0,0-1.87-2.42,5.73,5.73,0,0,0-1.7-.16,3.57,3.57,0,0,0-2.32.64,2.26,2.26,0,0,0-.93,2v7.31l0,0h-1.66l0,0V672.16l0,0h1.66l0,0v1.16A4.56,4.56,0,0,1,713.82,672Z" transform="translate(13.87 -87.04)"/><path d="M727.52,671.87h.32a5.46,5.46,0,0,1,3.61,1.47,6.17,6.17,0,0,1-.1,9.09,5.52,5.52,0,0,1-7.55-.19,6,6,0,0,1-1.83-4.33v-.15a6,6,0,0,1,1.82-4.31A5.43,5.43,0,0,1,727.52,671.87Zm-3.82,6v.07A4.33,4.33,0,0,0,725,681a3.84,3.84,0,0,0,2.67,1.11,3.93,3.93,0,0,0,3.19-1.71,4.59,4.59,0,0,0,.79-2.56,4.35,4.35,0,0,0-1.41-3.23,3.73,3.73,0,0,0-2.5-1h-.19a3.84,3.84,0,0,0-2.74,1.28A4.37,4.37,0,0,0,723.7,677.83Z" transform="translate(13.87 -87.04)"/><path d="M747.28,671.84a5.44,5.44,0,0,1,4.37,2.26,6.16,6.16,0,0,1,1.2,3.45v.15c0,.38,0,.57-.07.57h-9.4a4.25,4.25,0,0,0,.5,1.67,3.84,3.84,0,0,0,3.36,2.16,3.76,3.76,0,0,0,2.94-1.48,4.25,4.25,0,0,0,.57-1h0c.67.26,1.2.49,1.58.67a6,6,0,0,1-1.22,1.82,5.41,5.41,0,0,1-3.87,1.67,5.54,5.54,0,0,1-4.43-2.27,6.25,6.25,0,0,1-1.2-3.65v-.11a6.1,6.1,0,0,1,1.77-4.34A5.39,5.39,0,0,1,747.28,671.84Zm-3.73,4.72H751a4.18,4.18,0,0,0-1.76-2.39,3.55,3.55,0,0,0-2-.58,3.77,3.77,0,0,0-3.08,1.68A4.23,4.23,0,0,0,743.55,676.56Z" transform="translate(13.87 -87.04)"/><path d="M759.47,671.77h.17a5.08,5.08,0,0,1,2.4.6,4.64,4.64,0,0,1,.79.54,4.37,4.37,0,0,1,.61.62,1.09,1.09,0,0,1,.19.28c-.75.43-1.25.72-1.49.88h0a2.43,2.43,0,0,0-.67-.64,3.31,3.31,0,0,0-1.92-.55,3.39,3.39,0,0,0-2.12.64,1.47,1.47,0,0,0-.55,1.09.79.79,0,0,0,.35.69,1.54,1.54,0,0,0,.39.23,8.75,8.75,0,0,0,1.86.6l1.57.3a5.35,5.35,0,0,1,1,.35,4.81,4.81,0,0,1,.76.46,4.09,4.09,0,0,1,.46.43,3,3,0,0,1,.74,1.91v.08a3.28,3.28,0,0,1-.8,2.08,4.74,4.74,0,0,1-.51.48,4.66,4.66,0,0,1-.72.44,5.55,5.55,0,0,1-2.44.56h-.16a5.51,5.51,0,0,1-2.64-.67,4.88,4.88,0,0,1-1.88-1.89,6.47,6.47,0,0,1,.72-.41l.79-.43a3.22,3.22,0,0,0,1.66,1.42,4,4,0,0,0,1.44.25,3.78,3.78,0,0,0,1.95-.51,1.84,1.84,0,0,0,.45-.35,1.56,1.56,0,0,0,.41-1c0-.55-.35-1-1-1.3a4.4,4.4,0,0,0-.72-.23,19.49,19.49,0,0,1-3.11-.75c-1.52-.56-2.29-1.47-2.29-2.71v0a3.07,3.07,0,0,1,.86-2.08,3.43,3.43,0,0,1,.57-.5,4.35,4.35,0,0,1,1.28-.62A5.8,5.8,0,0,1,759.47,671.77Z" transform="translate(13.87 -87.04)"/><path d="M767.4,665.59h1.74V672h3.21v1.73h-3.21v6.8a1.73,1.73,0,0,0,.26.94,1.34,1.34,0,0,0,.7.48,1.28,1.28,0,0,0,.35.06h.08a3.72,3.72,0,0,0,1.28-.32l.15-.07c.42.92.66,1.45.71,1.58a5.42,5.42,0,0,1-2.07.55h-.21a3,3,0,0,1-1.39-.39,2.89,2.89,0,0,1-1.36-1.54,4,4,0,0,1-.24-1.4V673.7h-1.95V672h1.95Z" transform="translate(13.87 -87.04)"/><path d="M780.47,671.83a4.57,4.57,0,0,1,3.89,2l0,.08h0V672l0,0h1.67l0,0v11.7l0,0h-1.67l0,0v-1.91h0a4.51,4.51,0,0,1-4,2.06h0a5.6,5.6,0,0,1-4.21-1.93,6.13,6.13,0,0,1-1.51-4v-.15a6,6,0,0,1,1.67-4.16A5.72,5.72,0,0,1,780.47,671.83Zm-4.12,6v.06a4.26,4.26,0,0,0,1.65,3.43,3.89,3.89,0,0,0,6-1.83,4.67,4.67,0,0,0,.27-1.54v-.27a4.58,4.58,0,0,0-.68-2.26,3.56,3.56,0,0,0-3.11-1.79,4,4,0,0,0-3.81,2.47A4.55,4.55,0,0,0,776.35,677.79Z" transform="translate(13.87 -87.04)"/><path d="M805.3,665.59H807l0,0v18.07l0,0H805.3l0,0v-1.92h0a4.48,4.48,0,0,1-4,2.06h0A5.6,5.6,0,0,1,797,681.9a6.08,6.08,0,0,1-1.51-4v-.15a6,6,0,0,1,1.67-4.16,5.7,5.7,0,0,1,4.19-1.77,4.59,4.59,0,0,1,3.89,2l0,.08h0v-8.29Zm-8.09,12.2v.06a4.27,4.27,0,0,0,1.66,3.43,3.88,3.88,0,0,0,6-1.83,4.69,4.69,0,0,0,.28-1.54v-.27a4.5,4.5,0,0,0-.69-2.26,3.55,3.55,0,0,0-3.1-1.79,4,4,0,0,0-3.82,2.47A4.55,4.55,0,0,0,797.21,677.79Z" transform="translate(13.87 -87.04)"/><path d="M811.73,665.59h.1a1.23,1.23,0,0,1,1.19,1.2v.06a1.23,1.23,0,0,1-1.21,1.21h-.07a1.18,1.18,0,0,1-.94-.48,1.11,1.11,0,0,1-.26-.7v-.1a1.2,1.2,0,0,1,.39-.87A1.22,1.22,0,0,1,811.73,665.59Zm-.81,6.36h1.72v11.75h-1.73V672Z" transform="translate(13.87 -87.04)"/><path d="M820.27,671.77h.18a5.08,5.08,0,0,1,2.4.6,4.64,4.64,0,0,1,.79.54,4.37,4.37,0,0,1,.61.62,1.22,1.22,0,0,1,.18.28c-.75.43-1.24.72-1.48.88h0a2.38,2.38,0,0,0-.66-.64,3.31,3.31,0,0,0-1.92-.55,3.37,3.37,0,0,0-2.12.64,1.48,1.48,0,0,0-.56,1.09.78.78,0,0,0,.36.69,1.46,1.46,0,0,0,.38.23,9.17,9.17,0,0,0,1.86.6l1.57.3a5.23,5.23,0,0,1,1,.35,4.81,4.81,0,0,1,.76.46,4.39,4.39,0,0,1,.45.43,2.91,2.91,0,0,1,.75,1.91v.08a3.24,3.24,0,0,1-.81,2.08,3.38,3.38,0,0,1-.51.48,4.62,4.62,0,0,1-.71.44,5.61,5.61,0,0,1-2.44.56h-.16a5.51,5.51,0,0,1-2.64-.67,1.33,1.33,0,1,1-1.17-2.3l.8-.43a3.22,3.22,0,0,0,1.66,1.42,4,4,0,0,0,1.43.25,3.79,3.79,0,0,0,2-.51,2,2,0,0,0,.44-.35,1.51,1.51,0,0,0,.41-1,1.46,1.46,0,0,0-1-1.3,4.4,4.4,0,0,0-.72-.23,19.49,19.49,0,0,1-3.11-.75c-1.53-.56-2.29-1.47-2.29-2.71v0a3.06,3.06,0,0,1,.85-2.08,3.43,3.43,0,0,1,.57-.5,4.3,4.3,0,0,1,1.29-.62A5.73,5.73,0,0,1,820.27,671.77Z" transform="translate(13.87 -87.04)"/><path d="M833.51,671.83v0h0v0a5.58,5.58,0,0,1,3.88,1.6,6,6,0,0,1,1.83,4.26V678a6,6,0,0,1-1.72,4.17,5.77,5.77,0,0,1-4.14,1.7,4.57,4.57,0,0,1-3.89-2l0-.06h0V689l0,0h-1.66l0,0V672.14l0,0h1.66l0,0v1.76A4.55,4.55,0,0,1,833.51,671.83Zm-3.94,6V678a4.56,4.56,0,0,0,1.09,2.87,3.49,3.49,0,0,0,2.73,1.25,3.94,3.94,0,0,0,3.69-2.26,4.46,4.46,0,0,0,.46-1.91v-.19a4.24,4.24,0,0,0-1.32-3,3.75,3.75,0,0,0-2.65-1.09,3.7,3.7,0,0,0-3.7,2.59A4.6,4.6,0,0,0,829.57,677.83Z" transform="translate(13.87 -87.04)"/><path d="M847.11,671.87h.32a5.49,5.49,0,0,1,3.62,1.47,6.19,6.19,0,0,1-.1,9.09,5.53,5.53,0,0,1-7.56-.19,6,6,0,0,1-1.83-4.33v-.15a6,6,0,0,1,1.82-4.31A5.47,5.47,0,0,1,847.11,671.87Zm-3.82,6v.07a4.3,4.3,0,0,0,1.32,3.09,3.84,3.84,0,0,0,2.66,1.11,3.92,3.92,0,0,0,3.19-1.71,4.6,4.6,0,0,0,.8-2.56,4.35,4.35,0,0,0-1.41-3.23,3.75,3.75,0,0,0-2.51-1h-.18a3.86,3.86,0,0,0-2.75,1.28A4.42,4.42,0,0,0,843.29,677.83Z" transform="translate(13.87 -87.04)"/><path d="M861.08,672h.21q3.48,0,4.68,2.67a4.4,4.4,0,0,1,.31,1.65v7.41l0,0h-1.67l0,0v-7.41a2.39,2.39,0,0,0-1.87-2.42,5.73,5.73,0,0,0-1.7-.16,3.57,3.57,0,0,0-2.32.64,2.26,2.26,0,0,0-.92,2v7.31l0,0H856l0,0V672.16l0,0h1.66l0,0v1.16A4.53,4.53,0,0,1,861.08,672Z" transform="translate(13.87 -87.04)"/><path d="M871,665.59h.1a1.23,1.23,0,0,1,1.19,1.2v.06a1.23,1.23,0,0,1-1.2,1.21H871a1.18,1.18,0,0,1-.94-.48,1.17,1.17,0,0,1-.26-.7v-.1a1.23,1.23,0,0,1,1.19-1.19Zm-.81,6.36h1.72v11.75h-1.73V672Z" transform="translate(13.87 -87.04)"/><path d="M875.82,665.59h1.66l0,0v8.29h0a4.55,4.55,0,0,1,3.92-2.08,5.69,5.69,0,0,1,4.86,2.6,6.08,6.08,0,0,1,1,3.27V678a6,6,0,0,1-1.69,4.13,6.11,6.11,0,0,1-1.62,1.17,5.81,5.81,0,0,1-2.39.56h-.07a4.49,4.49,0,0,1-4-2.06h0v1.92l0,0h-1.66l0,0V665.62Zm1.79,12.11v.13a4.42,4.42,0,0,0,1.66,3.55,4,4,0,0,0,5.64-1.17,4.5,4.5,0,0,0,.66-2.26v-.2a4.3,4.3,0,0,0-1.51-3.26,4,4,0,0,0-2.66-.9A3.66,3.66,0,0,0,878,676,4.72,4.72,0,0,0,877.61,677.7Z" transform="translate(13.87 -87.04)"/><path d="M890.39,665.59h1.72v18.11h-1.73V665.6Z" transform="translate(13.87 -87.04)"/><path d="M900.47,671.84a5.44,5.44,0,0,1,4.37,2.26,6.16,6.16,0,0,1,1.2,3.45v.15c0,.38,0,.57-.07.57h-9.4a4.43,4.43,0,0,0,.5,1.67,4,4,0,0,0,2.14,1.93,3.94,3.94,0,0,0,1.22.23,3.74,3.74,0,0,0,2.94-1.48,4.25,4.25,0,0,0,.57-1h0c.67.26,1.2.49,1.58.67a5.79,5.79,0,0,1-1.22,1.82,5.41,5.41,0,0,1-3.87,1.67,5.51,5.51,0,0,1-4.42-2.27,6.25,6.25,0,0,1-1.2-3.65v-.11a6.1,6.1,0,0,1,1.77-4.34A5.35,5.35,0,0,1,900.47,671.84Zm-3.73,4.72h7.41a4.18,4.18,0,0,0-1.76-2.39,3.55,3.55,0,0,0-2-.58,3.77,3.77,0,0,0-3.08,1.68A4.48,4.48,0,0,0,896.74,676.56Z" transform="translate(13.87 -87.04)"/><path d="M482,626.45h8.33a9,9,0,0,1,6.82,3A8.11,8.11,0,0,1,496,641.24a9.16,9.16,0,0,1-5.66,1.89h-5v8.6l0,0H482l-.06,0V626.51Zm3.27,3.38v9.94h5.22a5.52,5.52,0,0,0,4.29-2,4.78,4.78,0,0,0,1-2.82v-.23a4.73,4.73,0,0,0-2.18-3.89,6.17,6.17,0,0,0-3.75-1h-4.53Z" transform="translate(13.87 -87.04)"/><path d="M510.26,635a6.55,6.55,0,0,1,5,2.19v-1.9l0,0h3.27l0,0v16.51l0,0h-3.27l0,0v-1.68a6.41,6.41,0,0,1-5,2.12h0a8.2,8.2,0,0,1-6.43-3.06,8.66,8.66,0,0,1-2-5.55v0a8.74,8.74,0,0,1,2.95-6.57A8.34,8.34,0,0,1,510.26,635Zm-5.12,8.61A5.35,5.35,0,0,0,507.5,648a4.82,4.82,0,0,0,2.49.8h.38a4.91,4.91,0,0,0,3.22-1.35,5.42,5.42,0,0,0,1.62-3.91v0a5.25,5.25,0,0,0-2.35-4.46,4.91,4.91,0,0,0-2.56-.8H510a4.92,4.92,0,0,0-3.75,1.92A5.74,5.74,0,0,0,505.14,643.56Z" transform="translate(13.87 -87.04)"/><path d="M531,635.1h.43a7.39,7.39,0,0,1,3.55,1h0c-.49,2.2-.75,3.34-.8,3.45a5.5,5.5,0,0,0-2.94-1.09H531a4.07,4.07,0,0,0-2.92,1.23c-.63.77-1,2.23-1,4.39v7.61l0,0h-3.24l-.05,0V635.47l.05,0h3.24l0,0v1.24A6,6,0,0,1,531,635.1Z" transform="translate(13.87 -87.04)"/><path d="M544.46,635H545a7.36,7.36,0,0,1,4.86,2,8.78,8.78,0,0,1,1.57,1.94,9.36,9.36,0,0,1,1.26,4.67v.52c0,.32,0,.48-.07.48H540.21a5.4,5.4,0,0,0,1.31,2.77,4.29,4.29,0,0,0,3.19,1.51,4.46,4.46,0,0,0,3.77-2.27,2.71,2.71,0,0,1,.34-.59c2,.9,3,1.36,3,1.39a10.25,10.25,0,0,1-1.09,1.81,7.63,7.63,0,0,1-6,3h-.07a7.64,7.64,0,0,1-6.12-3.16,9.1,9.1,0,0,1-1.77-5.42v-.07a8.92,8.92,0,0,1,3.1-6.85A7.53,7.53,0,0,1,544.46,635Zm-3.94,6.48h8.39a6,6,0,0,0-1.35-2,4.32,4.32,0,0,0-2.87-1.12,4.47,4.47,0,0,0-3.89,2.5Z" transform="translate(13.87 -87.04)"/><path d="M564,635h0a8.22,8.22,0,0,1,4.84,1.59,11.29,11.29,0,0,1,.94.81,6.85,6.85,0,0,1,.84,1,1.89,1.89,0,0,1,.26.38l-2.76,1.83h0a5.15,5.15,0,0,0-4.14-2.26,4.89,4.89,0,0,0-3.35,1.35,3.83,3.83,0,0,0-.68.79,5.34,5.34,0,0,0-1,3.15,5.47,5.47,0,0,0,1.19,3.41,6.61,6.61,0,0,0,.8.79,4.82,4.82,0,0,0,5.9.14,5.64,5.64,0,0,0,.81-.71,5.53,5.53,0,0,0,.5-.67h0l2.79,1.83a9.46,9.46,0,0,1-.8,1,6.16,6.16,0,0,1-.83.81,9.37,9.37,0,0,1-1,.73,8.11,8.11,0,0,1-4.27,1.24h-.16a8.06,8.06,0,0,1-4.51-1.4c-.28-.19-.53-.38-.76-.57a9.12,9.12,0,0,1-.95-1,8.49,8.49,0,0,1-1-1.42,7.67,7.67,0,0,1-.64-1.46,8.72,8.72,0,0,1-.45-2.65v-.28a8.87,8.87,0,0,1,1-3.89c.2-.36.42-.73.68-1.11s.49-.61.88-1a11.46,11.46,0,0,1,1.19-1A8.2,8.2,0,0,1,564,635Z" transform="translate(13.87 -87.04)"/><path d="M581,635h.5a7.36,7.36,0,0,1,4.86,2,8.78,8.78,0,0,1,1.57,1.94,9.27,9.27,0,0,1,1.27,4.67v.52c0,.32,0,.48-.07.48H576.69a5.4,5.4,0,0,0,1.32,2.77,4.25,4.25,0,0,0,3.18,1.51,4.45,4.45,0,0,0,3.77-2.27,2.49,2.49,0,0,1,.35-.59c2,.9,3,1.36,3,1.39a11.7,11.7,0,0,1-1.09,1.81,7.66,7.66,0,0,1-6,3h-.07A7.66,7.66,0,0,1,575,649a9.09,9.09,0,0,1-1.76-5.42v-.07a8.91,8.91,0,0,1,3.09-6.85A7.54,7.54,0,0,1,581,635Zm-4,6.48h8.39a5.67,5.67,0,0,0-1.35-2,4.3,4.3,0,0,0-2.87-1.12,4.47,4.47,0,0,0-3.89,2.5Z" transform="translate(13.87 -87.04)"/><path d="M610.27,635c.66.12,1.12.21,1.38.29a5.8,5.8,0,0,1,1.07.45,6.24,6.24,0,0,1,.9.61,5,5,0,0,1,.78.74v-1.81h3.34v23.93l0,0H614.4V650l-.17.2a9.1,9.1,0,0,1-.9.76,6.68,6.68,0,0,1-3.94,1.24,8.24,8.24,0,0,1-5.42-2l-.31-.26a9.54,9.54,0,0,1-.9-1,8.73,8.73,0,0,1-1.76-5.28,9,9,0,0,1,1.17-4.48q.33-.51.75-1a7.52,7.52,0,0,1,.81-.88,8.46,8.46,0,0,1,1.3-1,8.34,8.34,0,0,1,4.49-1.23Zm4,7.08a8.6,8.6,0,0,0-.35-.87,7.28,7.28,0,0,0-.41-.71,5.19,5.19,0,0,0-2-1.71,4.84,4.84,0,0,0-2-.49h-.14a4.86,4.86,0,0,0-3.06,1.09,6.25,6.25,0,0,0-.68.66,5.39,5.39,0,0,0-1.3,3.53,5.57,5.57,0,0,0,.25,1.61,5.34,5.34,0,0,0,1.12,2,5.27,5.27,0,0,0,.69.63,4.68,4.68,0,0,0,2.91,1h.22a5.07,5.07,0,0,0,2-.46l.73-.45a5.45,5.45,0,0,0,.74-.66,10.89,10.89,0,0,0,.74-.93,8.36,8.36,0,0,0,.45-1,5.25,5.25,0,0,0,.26-1.4v-.69A6.57,6.57,0,0,0,614.23,642.08Z" transform="translate(13.87 -87.04)"/><path d="M630.16,651.78H630q-4.47,0-6.4-3.37a6.87,6.87,0,0,1-.68-3.13v-10l.05,0h3.24l0,0v10a2.7,2.7,0,0,0,1.76,2.8,4.75,4.75,0,0,0,1.91.33h.27a5.16,5.16,0,0,0,3-.66,2.73,2.73,0,0,0,1.16-2.56v-10l0,0h3.25l0,0v16.38l0,.05H634.4l0-.05v-1.11h0a7.24,7.24,0,0,1-2.3,1.08A9,9,0,0,1,630.16,651.78Z" transform="translate(13.87 -87.04)"/><path d="M649.16,635h.5a7.36,7.36,0,0,1,4.86,2,8.78,8.78,0,0,1,1.57,1.94,9.36,9.36,0,0,1,1.26,4.67v.52q0,.48-.06.48H644.9a5.48,5.48,0,0,0,1.31,2.77,4.29,4.29,0,0,0,3.19,1.51,4.46,4.46,0,0,0,3.77-2.27,2.71,2.71,0,0,1,.34-.59c2,.9,3,1.36,3,1.39a10.25,10.25,0,0,1-1.09,1.81,7.63,7.63,0,0,1-6,3h-.07a7.66,7.66,0,0,1-6.12-3.16,9.1,9.1,0,0,1-1.77-5.42v-.07a8.92,8.92,0,0,1,3.1-6.85A7.54,7.54,0,0,1,649.16,635Zm-3.95,6.48h8.39a5.67,5.67,0,0,0-1.35-2,4.3,4.3,0,0,0-2.87-1.12,4.47,4.47,0,0,0-3.89,2.5Z" transform="translate(13.87 -87.04)"/><path d="M676.38,635h.51a7.36,7.36,0,0,1,4.86,2,8.78,8.78,0,0,1,1.57,1.94,9.36,9.36,0,0,1,1.26,4.67v.52c0,.32,0,.48-.07.48H672.13a5.4,5.4,0,0,0,1.31,2.77,4.29,4.29,0,0,0,3.19,1.51,4.48,4.48,0,0,0,3.77-2.27,2.71,2.71,0,0,1,.34-.59c2,.9,3,1.36,3,1.39a10.25,10.25,0,0,1-1.09,1.81,7.63,7.63,0,0,1-6,3h-.07a7.63,7.63,0,0,1-6.12-3.16,9.1,9.1,0,0,1-1.77-5.42v-.07a8.92,8.92,0,0,1,3.1-6.85A7.53,7.53,0,0,1,676.38,635Zm-3.94,6.48h8.39a6,6,0,0,0-1.35-2,4.32,4.32,0,0,0-2.87-1.12,4.47,4.47,0,0,0-3.89,2.5Z" transform="translate(13.87 -87.04)"/><path d="M694.62,634.26a7.78,7.78,0,0,1,5.38,2,7,7,0,0,1,.71.76l.2.33a10,10,0,0,1-.93.59c-.59.35-1.22.75-1.89,1.19a3.23,3.23,0,0,0-.62-.61,4.56,4.56,0,0,0-2.82-.88h-.07a4.5,4.5,0,0,0-2.9.87,1.46,1.46,0,0,0-.61,1.12.67.67,0,0,0,.33.59,4.25,4.25,0,0,0,1.28.6,31.17,31.17,0,0,0,4.08.92,8.75,8.75,0,0,1,1.54.49,5.23,5.23,0,0,1,2,1.34,4.54,4.54,0,0,1,1.26,3.12v.05a5,5,0,0,1-1.31,3.3,4.23,4.23,0,0,1-.8.71,6.44,6.44,0,0,1-1.14.68,8.91,8.91,0,0,1-3.75.81h-.12a8.57,8.57,0,0,1-4.74-1.37,7.15,7.15,0,0,1-1-.81,5.63,5.63,0,0,1-.69-.76,6.4,6.4,0,0,1-.6-.9l2.88-1.66h0l.14.24a3.85,3.85,0,0,0,.61.69,4.3,4.3,0,0,0,1.93,1,6.66,6.66,0,0,0,1.53.18,5.4,5.4,0,0,0,2.71-.68,2.45,2.45,0,0,0,.55-.43,1.69,1.69,0,0,0,.45-1.07c0-.64-.49-1.14-1.47-1.51a12.29,12.29,0,0,0-1.78-.38,22,22,0,0,1-4.15-1.12,6.94,6.94,0,0,1-1.16-.63,4,4,0,0,1-1.73-2.16,3.67,3.67,0,0,1-.21-1.24v-.11a4.67,4.67,0,0,1,1.23-3.08,6.75,6.75,0,0,1,.75-.69,7.47,7.47,0,0,1,1.1-.69A8.94,8.94,0,0,1,694.62,634.26Z" transform="translate(13.87 -87.04)"/><path d="M706,626.45h3.33v8.74h4.29l0,0v3.32l0,0h-4.29v8.35a1.31,1.31,0,0,0,.66,1.3,2,2,0,0,0,.93.24,6.18,6.18,0,0,0,1.92-.45l.14-.07,1.25,3.13a12.92,12.92,0,0,1-1.35.45,7.87,7.87,0,0,1-1.94.28h0a5.24,5.24,0,0,1-3.08-1,6,6,0,0,1-.64-.56l-.3-.38a3.64,3.64,0,0,1-.43-.71A5.17,5.17,0,0,1,706,647v-8.47h-2.45l0,0v-3.32l0,0H706Z" transform="translate(13.87 -87.04)"/><path d="M725.44,635a6.55,6.55,0,0,1,4.95,2.19v-1.9l.05,0h3.27l0,0v16.51l0,0h-3.27l-.05,0v-1.68a6.41,6.41,0,0,1-5,2.12h0a8.2,8.2,0,0,1-6.43-3.06,8.66,8.66,0,0,1-2-5.55v0a8.73,8.73,0,0,1,2.94-6.57A8.39,8.39,0,0,1,725.44,635Zm-5.12,8.61a5.35,5.35,0,0,0,2.36,4.48,4.82,4.82,0,0,0,2.49.8h.38a4.86,4.86,0,0,0,3.21-1.35,5.39,5.39,0,0,0,1.63-3.91v0A5.25,5.25,0,0,0,728,639.1a4.91,4.91,0,0,0-2.56-.8h-.28a4.92,4.92,0,0,0-3.75,1.92A5.74,5.74,0,0,0,720.32,643.56Zm9.22-15.38-6.62,4.07,0,0-1.73-2.8v0l6.63-4Z" transform="translate(13.87 -87.04)"/><path d="M745,634.26a7.77,7.77,0,0,1,5.38,2,6.12,6.12,0,0,1,.71.76l.21.33s-.34.23-.93.59-1.22.75-1.89,1.19a3.54,3.54,0,0,0-.62-.61,4.6,4.6,0,0,0-2.82-.88h-.07a4.54,4.54,0,0,0-2.91.87,1.48,1.48,0,0,0-.6,1.12.68.68,0,0,0,.32.59,4.34,4.34,0,0,0,1.29.6,30.4,30.4,0,0,0,4.08.92,8.75,8.75,0,0,1,1.54.49,6.83,6.83,0,0,1,1.21.65,8,8,0,0,1,.78.69,4.54,4.54,0,0,1,1.26,3.12v.05a5,5,0,0,1-1.32,3.3,4,4,0,0,1-.79.71,6.44,6.44,0,0,1-1.14.68,8.92,8.92,0,0,1-3.76.81h-.12a8.57,8.57,0,0,1-4.74-1.37,7.12,7.12,0,0,1-1-.81,5,5,0,0,1-.69-.76,7.5,7.5,0,0,1-.61-.9l2.89-1.66h0l.14.24a3.74,3.74,0,0,0,.6.69,4.39,4.39,0,0,0,1.94,1,6.58,6.58,0,0,0,1.52.18,5.44,5.44,0,0,0,2.72-.68,2.69,2.69,0,0,0,.55-.43,1.69,1.69,0,0,0,.45-1.07c0-.64-.49-1.14-1.47-1.51a12.62,12.62,0,0,0-1.78-.38,21.77,21.77,0,0,1-4.15-1.12A6.94,6.94,0,0,1,740,643a3.9,3.9,0,0,1-1.73-2.16,3.67,3.67,0,0,1-.21-1.24v-.11a4.67,4.67,0,0,1,1.23-3.08,6.08,6.08,0,0,1,.74-.69,7,7,0,0,1,1.11-.69A8.9,8.9,0,0,1,745,634.26Z" transform="translate(13.87 -87.04)"/><path d="M773,635a8,8,0,0,1,5.79,2.24,9.13,9.13,0,0,1,.82.88c.27.36.52.71.74,1a9,9,0,0,1,1.18,4.48,8.74,8.74,0,0,1-1.77,5.28,9.54,9.54,0,0,1-.9,1l-.31.26a8.21,8.21,0,0,1-5.41,2,6.69,6.69,0,0,1-3.95-1.24,9.1,9.1,0,0,1-.9-.76l-.17-.2v9.23H764.8l0,0V635.29h3.34v1.81a5,5,0,0,1,.78-.74,6.24,6.24,0,0,1,.9-.61,5.8,5.8,0,0,1,1.07-.45c.26-.08.73-.17,1.38-.29Zm-4.88,8.29v.69a5.7,5.7,0,0,0,.26,1.4,8.36,8.36,0,0,0,.45,1,10.89,10.89,0,0,0,.74.93,4.79,4.79,0,0,0,.75.66q.4.27.72.45a5.07,5.07,0,0,0,2,.46h.22a4.68,4.68,0,0,0,2.91-1,5.27,5.27,0,0,0,.69-.63,5.34,5.34,0,0,0,1.12-2,5.25,5.25,0,0,0,.25-1.61,5.36,5.36,0,0,0-2-4.19,4.86,4.86,0,0,0-3.06-1.09H773a4.84,4.84,0,0,0-2,.49,4.92,4.92,0,0,0-1.2.83,5.46,5.46,0,0,0-.76.88,7.28,7.28,0,0,0-.41.71,8.6,8.6,0,0,0-.35.87A6.57,6.57,0,0,0,768.12,643.25Z" transform="translate(13.87 -87.04)"/><path d="M792,635h.5a7.36,7.36,0,0,1,4.86,2,8.88,8.88,0,0,1,1.58,1.94,9.36,9.36,0,0,1,1.26,4.67v.52c0,.32,0,.48-.07.48H787.75a5.48,5.48,0,0,0,1.32,2.77,4.25,4.25,0,0,0,3.18,1.51,4.45,4.45,0,0,0,3.77-2.27,2.49,2.49,0,0,1,.35-.59c2,.9,3,1.36,3,1.39a10.93,10.93,0,0,1-1.09,1.81,7.66,7.66,0,0,1-6,3h-.07a7.66,7.66,0,0,1-6.13-3.16,9.16,9.16,0,0,1-1.76-5.42v-.07a8.91,8.91,0,0,1,3.09-6.85A7.56,7.56,0,0,1,792,635Zm-4,6.48h8.39a5.76,5.76,0,0,0-1.34-2,4.34,4.34,0,0,0-2.88-1.12,4.48,4.48,0,0,0-3.89,2.5Z" transform="translate(13.87 -87.04)"/><path d="M811.49,635.1h.43a7.42,7.42,0,0,1,3.55,1h0c-.49,2.2-.75,3.34-.8,3.45a5.55,5.55,0,0,0-2.94-1.09h-.28a4.07,4.07,0,0,0-2.92,1.23c-.64.77-.95,2.23-.95,4.39v7.61l0,0h-3.23l0,0V635.47l0,0h3.23l0,0v1.24A6,6,0,0,1,811.49,635.1Z" transform="translate(13.87 -87.04)"/><path d="M834.49,626.47v25.31h-3.33v-1.73c-.2.21-.39.4-.58.57a7.38,7.38,0,0,1-.91.67,6.11,6.11,0,0,1-1.18.54,8.65,8.65,0,0,1-2.23.36H826a8,8,0,0,1-4.28-1.26,7.24,7.24,0,0,1-2-1.71,10.4,10.4,0,0,1-1-1.44,8.83,8.83,0,0,1-1.07-4.2,8.69,8.69,0,0,1,.61-3.22,8.88,8.88,0,0,1,1.71-2.75c.4-.4.71-.68.92-.85A8.16,8.16,0,0,1,826.1,635h0a6.73,6.73,0,0,1,4.31,1.5,4,4,0,0,1,.71.71h0V626.45h3.31ZM830,640.21a5.72,5.72,0,0,0-.61-.64,4.4,4.4,0,0,0-1-.73,5,5,0,0,0-2.16-.55,4.88,4.88,0,0,0-3.8,1.73,5.37,5.37,0,0,0-1.3,3.52v.07a5.41,5.41,0,0,0,.5,2.29,6.22,6.22,0,0,0,.88,1.33,4.94,4.94,0,0,0,3.67,1.63,5,5,0,0,0,2.09-.49,5.68,5.68,0,0,0,.95-.6l.32-.28a5.83,5.83,0,0,0,.63-.73,5.22,5.22,0,0,0,1-3.13v-.09A5.25,5.25,0,0,0,830,640.21Z" transform="translate(13.87 -87.04)"/><path d="M841.54,626.45h.13a2.15,2.15,0,0,1,2.11,2.13v.11a2.13,2.13,0,0,1-2.12,2.12h-.11a2.11,2.11,0,0,1-1.45-.6,2.38,2.38,0,0,1-.48-.68,2,2,0,0,1-.2-.83v-.14a2.17,2.17,0,0,1,.64-1.48l.26-.23A2.27,2.27,0,0,1,841.54,626.45Zm1.74,8.76v16.55l0,0h-3.32V635.21Z" transform="translate(13.87 -87.04)"/><path d="M864.51,626.47v25.31h-3.34v-1.73q-.3.32-.57.57a7.39,7.39,0,0,1-.92.67,6.11,6.11,0,0,1-1.18.54,8.65,8.65,0,0,1-2.23.36h-.22a8,8,0,0,1-4.27-1.26,7.73,7.73,0,0,1-.9-.62,9.12,9.12,0,0,1-1.09-1.09,8.87,8.87,0,0,1-1-1.44,8.72,8.72,0,0,1-1.07-4.2,8.88,8.88,0,0,1,.6-3.22,9.27,9.27,0,0,1,1.71-2.75c.41-.4.71-.68.92-.85a8.19,8.19,0,0,1,5.14-1.81h0a6.73,6.73,0,0,1,4.31,1.5,4,4,0,0,1,.71.71h0V626.47l0,0h3.3ZM860,640.21a4.87,4.87,0,0,0-.61-.64,4.35,4.35,0,0,0-1-.73,5.08,5.08,0,0,0-2.17-.55,4.9,4.9,0,0,0-3.8,1.73,5.37,5.37,0,0,0-1.3,3.52v.07a5.56,5.56,0,0,0,.5,2.29,6.22,6.22,0,0,0,.88,1.33,5,5,0,0,0,3.67,1.63,5.1,5.1,0,0,0,2.1-.49,6.11,6.11,0,0,0,1-.6l.31-.28a7.06,7.06,0,0,0,.64-.73,5.27,5.27,0,0,0,1-3.13v-.09A5.25,5.25,0,0,0,860,640.21Z" transform="translate(13.87 -87.04)"/><path d="M877.07,635a8.19,8.19,0,0,1,5.15,1.81,9.73,9.73,0,0,1,.94.87,8.39,8.39,0,0,1,1.69,2.73,8.83,8.83,0,0,1-.45,7.42,10.55,10.55,0,0,1-1,1.44,9.08,9.08,0,0,1-1.09,1.09,9.61,9.61,0,0,1-.89.64,8.16,8.16,0,0,1-4.29,1.24H877a8.28,8.28,0,0,1-4.52-1.38c-.27-.21-.52-.4-.74-.59a6.23,6.23,0,0,1-1-1,7.06,7.06,0,0,1-.68-.9,8.7,8.7,0,0,1-.58-1.07,8.52,8.52,0,0,1-.82-3.58v-.26a8.77,8.77,0,0,1,1-3.89,11.73,11.73,0,0,1,.66-1.09,12.36,12.36,0,0,1,.88-1.06,10.37,10.37,0,0,1,1.21-1A8.08,8.08,0,0,1,877.07,635Zm-5,8.65a5.34,5.34,0,0,0,1.23,3.42,4.71,4.71,0,0,0,.83.8,4.81,4.81,0,0,0,6.47-.45,5.47,5.47,0,0,0,.85-1.11,5.4,5.4,0,0,0,.71-2.65v-.05a5.37,5.37,0,0,0-1.37-3.58,4,4,0,0,0-.79-.71,3.71,3.71,0,0,0-.56-.38,4.83,4.83,0,0,0-5.69.76,4.06,4.06,0,0,0-.67.8A5.26,5.26,0,0,0,872,643.6Z" transform="translate(13.87 -87.04)"/><rect class="cls-34" x="760.87" y="355.13" width="9.5" height="7.82" rx="1.22"/><rect class="cls-34" x="777.87" y="354.13" width="9.5" height="7.82" rx="1.22"/><path class="cls-34" d="M756.5,446.47a5.21,5.21,0,0,1,7.5-1.11" transform="translate(13.87 -87.04)"/><path d="M746.61,443.76l-13.19-3.71-1.88-.53a.45.45,0,0,0-.24.86l13.19,3.72,1.88.53a.45.45,0,0,0,.24-.87Z" transform="translate(13.87 -87.04)"/></g></g></svg>