<svg id="Capa_1" data-name="Capa 1" xmlns="http://www.w3.org/2000/svg" viewBox="0 0 287.44 383.85"><defs><style>.cls-1{fill:#cdcdcd;}.cls-2{fill:#d0f09d;}.cls-3{fill:#fcddaf;}.cls-4{fill:#b2d9fd;}.cls-5{fill:#baeb6c;}.cls-6{fill:#b4acb5;}.cls-7{fill:#fdde30;}.cls-8{fill:#fce77c;}.cls-9{fill:#89c8fd;}.cls-10{fill:#fbcc7e;}.cls-11{fill:#a69aa6;}.cls-12{fill:#ceee9c;}.cls-13{fill:#a0e32d;}</style></defs><path d="M236.28,587.93c-1.12-1.17-2.75-.93-4.12-1.45-11.15-4.23-18.08-12.07-19.15-24-1.23-13.81-1.7-27.67-2.52-41.73a51.45,51.45,0,0,1-6,1.2,16.1,16.1,0,0,1-13-27.32c4.74-5,9.63-9.8,14.57-14.58a5.93,5.93,0,0,0,2-5.22c-.87-14-1.58-27.94-2.26-41.91a3.94,3.94,0,0,0-2.52-3.94c-4-2-6-5.55-6-10s0-9.25,0-13.87c0-8.19,4.48-12.65,12.73-12.77.62,0,1.24,0,2.21,0-2.33-5.8-3.71-11.48-2.49-17.54,3-15,16.79-24.35,31.75-21.28,2.3.47,3.08.34,3.87-2.05a34.58,34.58,0,0,1,65.59-.19c.73,2.14,1.15,2.83,3.75,2.3,10.22-2.07,19,.92,26,8.75,1,1.14,1.68,2,3.64,1.57,17.72-3.57,30.58,10,26.21,27.4a5.05,5.05,0,0,0,0,.91c3.42,0,6.68.68,9.3,3.1a11.32,11.32,0,0,1,3.72,8.67c0,4.87,0,9.74,0,14.61s-2.12,8.66-6.64,10.82c-1.07.51-2,.92-1.86,2.36a3.7,3.7,0,0,1,0,.74c-.58,11.48-1.17,23-1.79,34.91,5.25-2.83,10.2-5.37,15.58-6.83,1.11-.3,1.3-1,1.3-1.91s0-2,0-3c0-76.46.1-152.93-.11-229.4,0-10.93,3.59-18.54,14.22-22.15h7.5c10,2.44,14.59,8.28,14.61,18.68q.07,29,0,58c0,5.65-1.33,7.39-6.15,8.77-4.56-.8-6.84-3.16-7.2-7.65-.25-3.11-.07-6.23-.1-9.35-.05-4.92-.17-5.05-5-5.11a10.61,10.61,0,0,0-1.87.1c-2.53,0-3.6,1.28-3.54,3.73,0,1.25,0,2.5,0,3.75V449.57c0,.62,0,1.25,0,1.87.05,4.77.05,4.77,4.72,4.95,1-.05,2-.09,3-.05,1.72.06,2.49-.81,2.57-2.47.06-1.38.06-2.75.06-4.12v-134a40.83,40.83,0,0,1,.24-6.35c.64-4,2.3-5.64,6.49-6.56,4.95,1,6.67,2.87,6.8,7.78.12,4.74,0,9.48,0,14.23q0,64.22,0,128.45c0,5.75,0,5.72,5.39,7.75,17.13,6.48,28.29,18.5,32.48,36.36,3.74,15.93,5.83,32.17,7.84,48.39,1.2,9.66,2.38,19.32,2.26,29.08-.09,7.7-2.82,11.22-10.11,13H351.73c-2.74-1.11-5.49-.56-8.24,0Z" transform="translate(-186.88 -204.08)"/><path class="cls-1" d="M343.49,587.93c2.75-1.22,5.5-2,8.24,0Z" transform="translate(-186.88 -204.08)"/><path class="cls-2" d="M339.74,576.56q-26.39.06-52.76.12-22.65,0-45.29,0c-9.64,0-16.87-6.17-17.59-15.78-1.2-16-1.84-32.12-2.81-48.18-.11-1.91.81-3,2-4.13,7.08-7,14.08-14.15,21.2-21.14,2.58-2.52,3.24-5.18,1.51-8.38-.15-.2-.37-.49-.28-.64,2.65-4.53,5.94-8.4,10.9-10.55,3.44,2.07,6.28,1.32,9-1.53,4-4.26,8.31-8.29,12.4-12.5a3.43,3.43,0,0,1,3.88-1.06c16,4,29.75-2.5,36.84-17.34,1.65-3.45,4-5.08,7.91-5,9.12.15,18.23.13,27.35.17,1.84,2.47,1.17,5.27.91,7.94-.68,6.82-.82,13.67-1.2,20.51-.7,12.8-1.31,25.6-2.12,38.4-.33,5.34-.66,10.7-.84,16-.56,15.81-1.58,31.59-2.54,47.37C347.81,567.11,346.06,573.23,339.74,576.56Z" transform="translate(-186.88 -204.08)"/><path class="cls-3" d="M450,576.57c-6.23.31-6.17.3-6.7-6.11a225.22,225.22,0,0,0-5.88-36.14c-1.23-4.9-6.1-6.57-9.37-3.4-1.8,1.74-1.95,3.84-1.4,6.22a300.39,300.39,0,0,1,5.78,36.18c.31,3-.45,3.56-3.18,3.42a122.85,122.85,0,0,0-12.73,0c-2.75.16-3.25-.84-3.22-3.36.12-12.62,0-25.23.07-37.85,0-2.48-.86-4.39-3.09-5.54a5.22,5.22,0,0,0-5.66.39c-2.22,1.52-2.51,3.83-2.51,6.3,0,12.24-.06,24.48.08,36.72,0,2.53-.48,3.5-3.22,3.34a127.2,127.2,0,0,0-13.1,0c-2.42.11-2.89-.65-2.69-2.94a274.68,274.68,0,0,1,5.65-36.2c1-4.26-.43-7.28-3.78-8.08s-6.07,1.2-7.07,5.4a226.49,226.49,0,0,0-5.84,37.67c-.23,3.49-1.33,4.57-4.58,4.12a44.81,44.81,0,0,0-5.15,0c6.91-8.8,5.86-18.79,6.5-28.38.76-11.47,1.18-22.95,1.78-34.42a20.13,20.13,0,0,1,.48-2.53,7.06,7.06,0,0,1,3-.25c21.72,0,43.44.06,65.15-.08,3.23,0,4.54,1.25,5,4.13,2.55,15.52,4.84,31.07,6.1,46.75.27,3.36,1,6.68.77,10.07C451,573.59,451.22,575.26,450,576.57Z" transform="translate(-186.88 -204.08)"/><path class="cls-4" d="M355.47,392.15c-6,.05-12,.13-18,.13-35.84,0-71.68,0-107.53.08a7,7,0,0,1-6.25-3.16,15.83,15.83,0,0,1,1.05-20.29c5.19-5.48,13.22-6.37,19.83-2.21,6,3.78,10,1.67,10.29-5.51a20.84,20.84,0,0,1,5.59-13.89c5.77-3.06,11.83-2.94,17.74-.86a32,32,0,0,1,20.07,19.36c2.59,6.74,3.56,7.28,10.6,5.88,7.68-1.54,14.09.6,19,6.68a7.51,7.51,0,0,0,7.94,2.81c5.74-1.05,11.3-.6,15.82,3.55C353.75,386.64,356.43,388.55,355.47,392.15Z" transform="translate(-186.88 -204.08)"/><path class="cls-5" d="M362.21,419.09c-11.61.05-23.23.22-34.84.09-9-.1-15.17,3.72-19,11.84s-10.71,12.21-19.17,11.27c3.53-3.38,6.72-6.3,9.75-9.37,7-7.11,7.32-16.77.81-23.4s-16.58-6.45-23.72.54c-3.3,3.23-6.58,6.49-9.79,9.81-1.15,1.19-2.09,1.77-3.81.86-2.58-1.37-5.48-1.53-8.39-1.52-14,0-28,0-42,.07-2.61,0-3.85-.36-3.59-3.38.34-3.95-1.33-9.3.67-11.57,2.29-2.6,7.74-.78,11.8-.79q68.4-.09,136.78,0c1.49,0,3,.08,4.48.12A21.63,21.63,0,0,1,362.21,419.09Z" transform="translate(-186.88 -204.08)"/><path class="cls-6" d="M439.42,499.37q-32.78.08-65.57.19c-2.08,0-2.52-.69-2.28-2.63a33.32,33.32,0,0,0,.36-7.84c-.61-5.22,1.92-8.45,6-11.09,5-3.3,10.24-6.18,16.3-7.13,12.24-1.31,22.58,3.47,32.25,10.21a37.62,37.62,0,0,1,12.09,14.43C439.13,496.71,440,497.89,439.42,499.37Z" transform="translate(-186.88 -204.08)"/><path class="cls-5" d="M339.74,576.56c5.56-5.64,7.37-12.46,7.64-20.32.54-16.23,1.87-32.44,2.79-48.66.27-4.83.36-9.66.68-14.5.85-12.51,1-25.07,1.72-37.59.49-8.3,1.32-16.57,1.41-24.89,10.3-.57,10.1-.58,9.49,9.56-1.28,21.27-2.34,42.56-3.48,63.85-1,18.92-1.95,37.85-3.07,56.76A16.87,16.87,0,0,1,339.74,576.56Z" transform="translate(-186.88 -204.08)"/><path class="cls-7" d="M419.94,288.86q0,7.41-.05,14.83c-4.79,1.24-5.82,2.63-5.82,8V451.34c0,6.65,0,6.65-6.88,6.11-1.68-2.05-1.18-4.52-1.18-6.84q0-89.44,0-178.89c0-1.73-.3-3.51.64-5.13,7.43-.46,7.43-.46,7.43,6.74v7.08C414.08,285.94,414.86,287.06,419.94,288.86Z" transform="translate(-186.88 -204.08)"/><path class="cls-8" d="M406.64,266.59c.73,1.27.56,2.66.56,4q0,93.42,0,186.84c-5.86.63-5.86.63-5.86-5.28V271.38C401.33,266.26,401.33,266.26,406.64,266.59Z" transform="translate(-186.88 -204.08)"/><path class="cls-9" d="M355.47,392.15c-2.92-8.09-10.34-12.13-19.13-10.06-4.21,1-6.93-.19-9.63-3.6-4.92-6.21-11.69-7.32-19.18-5.62-5.79,1.31-7.71.09-9.75-5.56-4.52-12.55-13.56-19.7-26.67-21.32-3.44-.43-7.08.83-10.63,1.31a22.86,22.86,0,0,1,24.9-7.3,23.56,23.56,0,0,1,16.13,20.48c0,.62,0,1.25.05,1.87.29,5.59,4.89,8.26,9.26,4.92a15.83,15.83,0,0,1,23.87,6.29c1.95,4.54,4.95,5.05,9.76,2.31,4.6-2.6,9.59-2,13,1.58a10.4,10.4,0,0,1,1.19,12.76C357.91,391.35,357.25,392.69,355.47,392.15Z" transform="translate(-186.88 -204.08)"/><path class="cls-10" d="M450,576.57c-.14-14.81-2.14-29.43-4.36-44-.85-5.64-1.71-11.28-2.38-16.95-.35-2.92-1.36-4.23-4.66-4.21-22.47.12-44.95,0-67.43,0,1-1.22,2.33-.59,3.48-.59,25.47,0,50.94.05,76.41-.08,2.75,0,3.59.84,4,3.38,3.05,19.73,6.12,39.45,7.19,59.42.13,2.42-.22,3.45-2.88,3.25C456.21,576.5,453.08,576.61,450,576.57Z" transform="translate(-186.88 -204.08)"/><path class="cls-11" d="M256.61,467.88c-3.75,3.53-8,6.64-10.62,11.19-4-3.08-6.06-3-9.69.64-9.63,9.6-19.21,19.24-28.86,28.82-3.14,3.13-5.15,3.09-8.19.1,1.06-2.08,3.17-3.12,4.74-4.69q41.2-41.32,82.52-82.52C288,419.94,289,418,291,417c3,3.1,3,5-.41,8.39q-16.45,16.51-33,33C254.19,461.84,254,463.72,256.61,467.88Z" transform="translate(-186.88 -204.08)"/><path class="cls-2" d="M254.78,430.47,219,466.11c-.17-2.14-.41-4.52-.55-6.91q-.71-13.09-1.37-26.18c-.06-1.17-.61-2.57,1.52-2.56C230.65,430.49,242.7,430.47,254.78,430.47Z" transform="translate(-186.88 -204.08)"/><path class="cls-6" d="M291,417a12.5,12.5,0,0,1-3.05,4.19q-42.1,42.07-84.18,84.18a13.77,13.77,0,0,1-4.52,3.24c-2.38-3.08-.6-5.31,1.54-7.45q20.47-20.51,41-41,20.76-20.76,41.52-41.53C285.52,416.43,287.8,414.6,291,417Z" transform="translate(-186.88 -204.08)"/><path class="cls-11" d="M439.42,499.37c-8.82-19.43-25.18-26.89-45.23-28.5,18.56-6,51,1,57.74,28.41A81.67,81.67,0,0,1,439.42,499.37Z" transform="translate(-186.88 -204.08)"/><path class="cls-5" d="M405.66,216c4.91-1.35,8.32,1.06,8.37,6.17.1,10.17,0,20.36.07,30.53,0,1.87-.39,2.81-2.45,2.57-1.47-.17-3-.14-4.45-.19-1.37-1.56-1.15-3.48-1.15-5.32,0-8.31-.13-16.62,0-24.92C406.15,221.81,404.89,218.93,405.66,216Z" transform="translate(-186.88 -204.08)"/><path class="cls-12" d="M405.66,216a16.48,16.48,0,0,1,1.58,7.6c-.08,10.49,0,21,0,31.48-.86.06-1.74.05-2.59.18-2.56.39-3.39-.54-3.35-3.22.16-9.7,0-19.41.08-29.11C401.35,219.73,402.08,216.92,405.66,216Z" transform="translate(-186.88 -204.08)"/><path class="cls-13" d="M362.21,419.09V403.63c10.1-.54,10.1-.54,10.1,9.41,0,6.19,0,6.2-6.36,6.18C364.7,419.22,363.46,419.14,362.21,419.09Z" transform="translate(-186.88 -204.08)"/></svg>